<svg width="555" height="96" viewBox="0 0 555 96" fill="none" xmlns="http://www.w3.org/2000/svg">
<path d="M29.8 3.12H57.704L86.632 94H61.288L55.784 76.208H31.592L26.216 94H0.744L29.8 3.12ZM51.816 59.568L43.752 27.568L35.304 59.568H51.816ZM135.399 95.28C130.364 95.28 126.012 94.2987 122.343 92.336C118.674 90.288 115.772 87.344 113.639 83.504V94H92.519V0.559998H116.839V36.656C118.802 32.9867 121.575 30.2133 125.159 28.336C128.743 26.3733 132.967 25.392 137.831 25.392C141.927 25.392 145.724 26.288 149.223 28.08C152.722 29.7867 155.751 32.2187 158.311 35.376C160.956 38.5333 163.004 42.288 164.455 46.64C165.906 50.9067 166.631 55.5573 166.631 60.592C166.631 65.5413 165.82 70.1493 164.199 74.416C162.663 78.5973 160.487 82.2667 157.671 85.424C154.94 88.5813 151.655 91.0133 147.815 92.72C144.06 94.4267 139.922 95.28 135.399 95.28ZM128.359 74.8C130.322 74.8 132.114 74.4587 133.735 73.776C135.356 73.0933 136.764 72.1547 137.959 70.96C139.154 69.68 140.05 68.1867 140.647 66.48C141.33 64.7733 141.671 62.8533 141.671 60.72C141.671 57.9893 141.116 55.5147 140.007 53.296C138.983 50.992 137.532 49.2 135.655 47.92C133.863 46.5547 131.772 45.872 129.383 45.872C127.676 45.872 126.012 46.2987 124.391 47.152C122.77 48.0053 121.276 49.2 119.911 50.736C118.631 52.1867 117.607 53.8933 116.839 55.856V67.888C117.607 68.9973 118.418 70.0213 119.271 70.96C120.21 71.8133 121.148 72.5387 122.087 73.136C123.026 73.648 124.007 74.0747 125.031 74.416C126.14 74.672 127.25 74.8 128.359 74.8ZM208.546 95.28C202.573 95.28 197.282 94.3413 192.674 92.464C188.066 90.5867 184.183 88.0267 181.026 84.784C177.954 81.456 175.607 77.7013 173.986 73.52C172.45 69.3387 171.682 64.944 171.682 60.336C171.682 55.728 172.45 51.3333 173.986 47.152C175.607 42.8853 177.954 39.1307 181.026 35.888C184.183 32.6453 188.066 30.0853 192.674 28.208C197.282 26.3307 202.573 25.392 208.546 25.392C214.605 25.392 219.895 26.3307 224.418 28.208C229.026 30.0853 232.866 32.6453 235.938 35.888C239.095 39.1307 241.442 42.8853 242.978 47.152C244.599 51.3333 245.41 55.728 245.41 60.336C245.41 64.944 244.599 69.3387 242.978 73.52C241.442 77.7013 239.095 81.456 235.938 84.784C232.866 88.0267 229.026 90.5867 224.418 92.464C219.895 94.3413 214.605 95.28 208.546 95.28ZM196.642 60.336C196.642 63.3227 197.154 65.9253 198.178 68.144C199.202 70.2773 200.61 71.9413 202.402 73.136C204.194 74.2453 206.242 74.8 208.546 74.8C210.85 74.8 212.898 74.2453 214.69 73.136C216.482 71.9413 217.89 70.2773 218.914 68.144C219.938 65.9253 220.45 63.3227 220.45 60.336C220.45 57.3493 219.938 54.7893 218.914 52.656C217.89 50.4373 216.482 48.7733 214.69 47.664C212.898 46.4693 210.85 45.872 208.546 45.872C206.242 45.872 204.194 46.4693 202.402 47.664C200.61 48.7733 199.202 50.4373 198.178 52.656C197.154 54.7893 196.642 57.3493 196.642 60.336ZM253.379 70.96V26.672H277.699V65.456C277.699 68.3573 278.339 70.6613 279.619 72.368C280.984 73.9893 282.819 74.8 285.123 74.8C286.403 74.8 287.683 74.6293 288.963 74.288C290.243 73.9467 291.523 73.264 292.803 72.24C294.168 71.216 295.491 69.7653 296.771 67.888V26.672H321.091V67.12C321.091 69.424 321.432 71.0453 322.115 71.984C322.798 72.8373 323.992 73.3493 325.699 73.52V94C323.566 94.4267 321.646 94.7253 319.939 94.896C318.232 95.152 316.739 95.28 315.459 95.28C311.363 95.28 308.12 94.512 305.731 92.976C303.342 91.44 301.806 89.0933 301.123 85.936L300.611 83.504C297.454 87.6853 293.656 90.7147 289.219 92.592C284.867 94.384 279.918 95.28 274.371 95.28C267.63 95.28 262.424 93.1893 258.755 89.008C255.171 84.8267 253.379 78.8107 253.379 70.96ZM382.376 90.288C380.157 91.2267 377.768 92.1227 375.208 92.976C372.733 93.744 370.173 94.3413 367.528 94.768C364.968 95.1947 362.451 95.408 359.976 95.408C356.307 95.408 352.936 94.8107 349.864 93.616C346.792 92.336 344.317 90.288 342.44 87.472C340.648 84.5707 339.752 80.688 339.752 75.824V44.976H331.432V26.672H339.752V5.55199H364.072V26.672H377.256V44.976H364.072V67.248C364.072 69.4667 364.541 71.0453 365.48 71.984C366.419 72.8373 367.699 73.264 369.32 73.264C370.515 73.264 371.88 73.0507 373.416 72.624C374.952 72.1973 376.488 71.6853 378.024 71.088L382.376 90.288ZM417.379 70.96V26.672H441.699V65.456C441.699 68.3573 442.339 70.6613 443.619 72.368C444.984 73.9893 446.819 74.8 449.123 74.8C450.403 74.8 451.683 74.6293 452.963 74.288C454.243 73.9467 455.523 73.264 456.803 72.24C458.168 71.216 459.491 69.7653 460.771 67.888V26.672H485.091V67.12C485.091 69.424 485.432 71.0453 486.115 71.984C486.798 72.8373 487.992 73.3493 489.699 73.52V94C487.566 94.4267 485.646 94.7253 483.939 94.896C482.232 95.152 480.739 95.28 479.459 95.28C475.363 95.28 472.12 94.512 469.731 92.976C467.342 91.44 465.806 89.0933 465.123 85.936L464.611 83.504C461.454 87.6853 457.656 90.7147 453.219 92.592C448.867 94.384 443.918 95.28 438.371 95.28C431.63 95.28 426.424 93.1893 422.755 89.008C419.171 84.8267 417.379 78.8107 417.379 70.96ZM526.652 95.28C520.764 95.28 514.961 94.3413 509.244 92.464C503.612 90.5013 498.833 87.6853 494.908 84.016L503.228 69.04C507.409 71.7707 511.42 73.904 515.26 75.44C519.185 76.976 522.727 77.744 525.884 77.744C527.676 77.744 528.999 77.5307 529.852 77.104C530.705 76.592 531.132 75.7813 531.132 74.672C531.132 73.904 530.833 73.264 530.236 72.752C529.639 72.24 528.657 71.728 527.292 71.216C526.012 70.704 524.348 70.1493 522.3 69.552C517.009 67.6747 512.572 65.9253 508.988 64.304C505.489 62.6827 502.844 60.72 501.052 58.416C499.345 56.0267 498.492 52.8693 498.492 48.944C498.492 44.336 499.644 40.2827 501.948 36.784C504.252 33.2 507.537 30.384 511.804 28.336C516.156 26.288 521.361 25.264 527.42 25.264C531.943 25.264 536.465 25.9893 540.988 27.44C545.596 28.8053 550.033 31.3227 554.3 34.992L545.084 49.84C540.817 47.1947 537.191 45.3173 534.204 44.208C531.303 43.0987 528.7 42.544 526.396 42.544C525.287 42.544 524.305 42.672 523.452 42.928C522.684 43.184 522.087 43.568 521.66 44.08C521.233 44.592 521.02 45.2747 521.02 46.128C521.02 46.9813 521.319 47.7067 521.916 48.304C522.513 48.816 523.452 49.328 524.732 49.84C526.012 50.2667 527.633 50.7787 529.596 51.376C535.399 53.0827 540.135 54.832 543.804 56.624C547.473 58.3307 550.161 60.4213 551.868 62.896C553.66 65.3707 554.556 68.6133 554.556 72.624C554.556 79.7067 552.039 85.2533 547.004 89.264C542.055 93.2747 535.271 95.28 526.652 95.28Z" fill="#FBF9F9"/>
</svg>
