<svg xmlns="http://www.w3.org/2000/svg" viewBox="0 0 158 75" fill="currentColor"><path d="M155.386 74.8651C156.214 74.8803 156.898 74.2212 156.913 73.3929L157.161 59.8952C157.177 59.0669 156.517 58.3831 155.689 58.3679C154.861 58.3527 154.177 59.0118 154.162 59.8401L153.941 71.8381L141.943 71.6176C141.115 71.6023 140.431 72.2614 140.416 73.0897C140.401 73.918 141.06 74.6018 141.888 74.617L155.386 74.8651ZM0.376258 5.19015C33.7794 1.38414 60.0554 6.07908 84.0403 17.9674C108.074 29.8798 129.901 49.0593 154.334 74.4064L156.494 72.3244C132.003 46.9168 109.884 27.4287 85.3726 15.2795C60.8129 3.10624 33.9466 -1.65433 0.0366308 2.20943L0.376258 5.19015Z" fill="currentColor"/></svg>