<svg width="300" height="94" viewBox="0 0 300 94" fill="none" xmlns="http://www.w3.org/2000/svg">
<path d="M0.808001 92V1.12H63.144V22.88H25.768V37.984H56.232V58.208H25.768V92H0.808001ZM88.05 1.12H115.954L144.882 92H119.538L114.034 74.208H89.842L84.466 92H58.994L88.05 1.12ZM110.066 57.568L102.002 25.568L93.554 57.568H110.066ZM189.643 92.64C182.731 92.64 176.459 91.36 170.827 88.8C165.195 86.24 160.331 82.784 156.235 78.432C152.224 73.9947 149.11 69.0453 146.891 63.584C144.758 58.0373 143.691 52.32 143.691 46.432C143.691 40.3733 144.843 34.6133 147.147 29.152C149.451 23.6053 152.651 18.6987 156.747 14.432C160.928 10.1653 165.835 6.79466 171.467 4.31999C177.184 1.75999 183.414 0.479996 190.155 0.479996C197.067 0.479996 203.339 1.80266 208.971 4.448C214.603 7.09333 219.424 10.6347 223.435 15.072C227.446 19.5093 230.518 24.5013 232.651 30.048C234.87 35.5093 235.979 41.1413 235.979 46.944C235.979 52.9173 234.827 58.6347 232.523 64.096C230.304 69.5573 227.104 74.464 222.923 78.816C218.827 83.0827 213.963 86.4533 208.331 88.928C202.699 91.4027 196.47 92.64 189.643 92.64ZM189.899 70.496C193.483 70.496 196.598 69.8133 199.243 68.448C201.888 67.0827 204.022 65.248 205.643 62.944C207.35 60.64 208.587 58.08 209.355 55.264C210.208 52.3627 210.635 49.4187 210.635 46.432C210.635 43.36 210.208 40.416 209.355 37.6C208.502 34.6987 207.222 32.1387 205.515 29.92C203.808 27.7013 201.632 25.952 198.987 24.672C196.342 23.3067 193.27 22.624 189.771 22.624C186.187 22.624 183.072 23.3067 180.427 24.672C177.867 26.0373 175.734 27.872 174.027 30.176C172.32 32.48 171.04 35.0827 170.187 37.984C169.419 40.8 169.035 43.7013 169.035 46.688C169.035 49.76 169.462 52.704 170.315 55.52C171.168 58.336 172.448 60.896 174.155 63.2C175.862 65.4187 177.995 67.2107 180.555 68.576C183.2 69.856 186.315 70.496 189.899 70.496ZM179.659 53.6H202.955L238.283 92H214.987L179.659 53.6ZM271.277 93.28C265.389 93.28 259.586 92.3413 253.869 90.464C248.237 88.5013 243.458 85.6853 239.533 82.016L247.853 67.04C252.034 69.7707 256.045 71.904 259.885 73.44C263.81 74.976 267.352 75.744 270.509 75.744C272.301 75.744 273.624 75.5307 274.477 75.104C275.33 74.592 275.757 73.7813 275.757 72.672C275.757 71.904 275.458 71.264 274.861 70.752C274.264 70.24 273.282 69.728 271.917 69.216C270.637 68.704 268.973 68.1493 266.925 67.552C261.634 65.6747 257.197 63.9253 253.613 62.304C250.114 60.6827 247.469 58.72 245.677 56.416C243.97 54.0267 243.117 50.8693 243.117 46.944C243.117 42.336 244.269 38.2827 246.573 34.784C248.877 31.2 252.162 28.384 256.429 26.336C260.781 24.288 265.986 23.264 272.045 23.264C276.568 23.264 281.09 23.9893 285.613 25.44C290.221 26.8053 294.658 29.3227 298.925 32.992L289.709 47.84C285.442 45.1947 281.816 43.3173 278.829 42.208C275.928 41.0987 273.325 40.544 271.021 40.544C269.912 40.544 268.93 40.672 268.077 40.928C267.309 41.184 266.712 41.568 266.285 42.08C265.858 42.592 265.645 43.2747 265.645 44.128C265.645 44.9813 265.944 45.7067 266.541 46.304C267.138 46.816 268.077 47.328 269.357 47.84C270.637 48.2667 272.258 48.7787 274.221 49.376C280.024 51.0827 284.76 52.832 288.429 54.624C292.098 56.3307 294.786 58.4213 296.493 60.896C298.285 63.3707 299.181 66.6133 299.181 70.624C299.181 77.7067 296.664 83.2533 291.629 87.264C286.68 91.2747 279.896 93.28 271.277 93.28Z" fill="#FBF9F9"/>
</svg>
