<svg width="1301" height="123" viewBox="0 0 1301 123" fill="none" xmlns="http://www.w3.org/2000/svg">
<path d="M81.192 4.12V95H56.232V59.416H25.768V95H0.808001V4.12H25.768V37.656H56.232V4.12H81.192ZM127.171 96.28C121.198 96.28 115.907 95.3413 111.299 93.464C106.691 91.5867 102.808 89.0267 99.651 85.784C96.579 82.456 94.2323 78.7013 92.611 74.52C91.075 70.3387 90.307 65.944 90.307 61.336C90.307 56.728 91.075 52.3333 92.611 48.152C94.2323 43.8853 96.579 40.1307 99.651 36.888C102.808 33.6453 106.691 31.0853 111.299 29.208C115.907 27.3307 121.198 26.392 127.171 26.392C133.23 26.392 138.52 27.3307 143.043 29.208C147.651 31.0853 151.491 33.6453 154.563 36.888C157.72 40.1307 160.067 43.8853 161.603 48.152C163.224 52.3333 164.035 56.728 164.035 61.336C164.035 65.944 163.224 70.3387 161.603 74.52C160.067 78.7013 157.72 82.456 154.563 85.784C151.491 89.0267 147.651 91.5867 143.043 93.464C138.52 95.3413 133.23 96.28 127.171 96.28ZM115.267 61.336C115.267 64.3227 115.779 66.9253 116.803 69.144C117.827 71.2773 119.235 72.9413 121.027 74.136C122.819 75.2453 124.867 75.8 127.171 75.8C129.475 75.8 131.523 75.2453 133.315 74.136C135.107 72.9413 136.515 71.2773 137.539 69.144C138.563 66.9253 139.075 64.3227 139.075 61.336C139.075 58.3493 138.563 55.7893 137.539 53.656C136.515 51.4373 135.107 49.7733 133.315 48.664C131.523 47.4693 129.475 46.872 127.171 46.872C124.867 46.872 122.819 47.4693 121.027 48.664C119.235 49.7733 117.827 51.4373 116.803 53.656C115.779 55.7893 115.267 58.3493 115.267 61.336ZM252.829 27.672H275.741L248.221 95H228.381L219.293 69.4L210.205 95H190.365L162.845 27.672H185.757L201.757 72.216L206.237 57.112L193.949 27.672H213.533L219.293 47.384L225.053 27.672H244.637L232.349 57.112L236.829 72.216L252.829 27.672ZM353.126 91.288C350.907 92.2267 348.518 93.1227 345.958 93.976C343.483 94.744 340.923 95.3413 338.278 95.768C335.718 96.1947 333.201 96.408 330.726 96.408C327.057 96.408 323.686 95.8107 320.614 94.616C317.542 93.336 315.067 91.288 313.19 88.472C311.398 85.5707 310.502 81.688 310.502 76.824V45.976H302.182V27.672H310.502V6.55199H334.822V27.672H348.006V45.976H334.822V68.248C334.822 70.4667 335.291 72.0453 336.23 72.984C337.169 73.8373 338.449 74.264 340.07 74.264C341.265 74.264 342.63 74.0507 344.166 73.624C345.702 73.1973 347.238 72.6853 348.774 72.088L353.126 91.288ZM392.421 96.28C386.448 96.28 381.157 95.3413 376.549 93.464C371.941 91.5867 368.058 89.0267 364.901 85.784C361.829 82.456 359.482 78.7013 357.861 74.52C356.325 70.3387 355.557 65.944 355.557 61.336C355.557 56.728 356.325 52.3333 357.861 48.152C359.482 43.8853 361.829 40.1307 364.901 36.888C368.058 33.6453 371.941 31.0853 376.549 29.208C381.157 27.3307 386.448 26.392 392.421 26.392C398.48 26.392 403.77 27.3307 408.293 29.208C412.901 31.0853 416.741 33.6453 419.813 36.888C422.97 40.1307 425.317 43.8853 426.853 48.152C428.474 52.3333 429.285 56.728 429.285 61.336C429.285 65.944 428.474 70.3387 426.853 74.52C425.317 78.7013 422.97 82.456 419.813 85.784C416.741 89.0267 412.901 91.5867 408.293 93.464C403.77 95.3413 398.48 96.28 392.421 96.28ZM380.517 61.336C380.517 64.3227 381.029 66.9253 382.053 69.144C383.077 71.2773 384.485 72.9413 386.277 74.136C388.069 75.2453 390.117 75.8 392.421 75.8C394.725 75.8 396.773 75.2453 398.565 74.136C400.357 72.9413 401.765 71.2773 402.789 69.144C403.813 66.9253 404.325 64.3227 404.325 61.336C404.325 58.3493 403.813 55.7893 402.789 53.656C401.765 51.4373 400.357 49.7733 398.565 48.664C396.773 47.4693 394.725 46.872 392.421 46.872C390.117 46.872 388.069 47.4693 386.277 48.664C384.485 49.7733 383.077 51.4373 382.053 53.656C381.029 55.7893 380.517 58.3493 380.517 61.336ZM493.652 96.28C487.764 96.28 481.961 95.3413 476.244 93.464C470.612 91.5013 465.833 88.6853 461.908 85.016L470.228 70.04C474.409 72.7707 478.42 74.904 482.26 76.44C486.185 77.976 489.727 78.744 492.884 78.744C494.676 78.744 495.999 78.5307 496.852 78.104C497.705 77.592 498.132 76.7813 498.132 75.672C498.132 74.904 497.833 74.264 497.236 73.752C496.639 73.24 495.657 72.728 494.292 72.216C493.012 71.704 491.348 71.1493 489.3 70.552C484.009 68.6747 479.572 66.9253 475.988 65.304C472.489 63.6827 469.844 61.72 468.052 59.416C466.345 57.0267 465.492 53.8693 465.492 49.944C465.492 45.336 466.644 41.2827 468.948 37.784C471.252 34.2 474.537 31.384 478.804 29.336C483.156 27.288 488.361 26.264 494.42 26.264C498.943 26.264 503.465 26.9893 507.988 28.44C512.596 29.8053 517.033 32.3227 521.3 35.992L512.084 50.84C507.817 48.1947 504.191 46.3173 501.204 45.208C498.303 44.0987 495.7 43.544 493.396 43.544C492.287 43.544 491.305 43.672 490.452 43.928C489.684 44.184 489.087 44.568 488.66 45.08C488.233 45.592 488.02 46.2747 488.02 47.128C488.02 47.9813 488.319 48.7067 488.916 49.304C489.513 49.816 490.452 50.328 491.732 50.84C493.012 51.2667 494.633 51.7787 496.596 52.376C502.399 54.0827 507.135 55.832 510.804 57.624C514.473 59.3307 517.161 61.4213 518.868 63.896C520.66 66.3707 521.556 69.6133 521.556 73.624C521.556 80.7067 519.039 86.2533 514.004 90.264C509.055 94.2747 502.271 96.28 493.652 96.28ZM598.481 95H574.161V57.112C574.161 53.784 573.393 51.3947 571.857 49.944C570.406 48.408 568.572 47.64 566.353 47.64C565.329 47.64 564.049 48.024 562.513 48.792C561.062 49.56 559.654 50.6693 558.289 52.12C556.924 53.5707 555.857 55.2773 555.089 57.24V95H530.769V1.56H555.089V37.656C557.478 33.9867 560.593 31.2133 564.433 29.336C568.358 27.3733 572.668 26.392 577.361 26.392C582.14 26.392 585.937 27.2027 588.753 28.824C591.569 30.36 593.66 32.3653 595.025 34.84C596.39 37.3147 597.286 39.96 597.713 42.776C598.225 45.592 598.481 48.2373 598.481 50.712V95ZM643.421 96.28C637.448 96.28 632.157 95.3413 627.549 93.464C622.941 91.5867 619.058 89.0267 615.901 85.784C612.829 82.456 610.482 78.7013 608.861 74.52C607.325 70.3387 606.557 65.944 606.557 61.336C606.557 56.728 607.325 52.3333 608.861 48.152C610.482 43.8853 612.829 40.1307 615.901 36.888C619.058 33.6453 622.941 31.0853 627.549 29.208C632.157 27.3307 637.448 26.392 643.421 26.392C649.48 26.392 654.77 27.3307 659.293 29.208C663.901 31.0853 667.741 33.6453 670.813 36.888C673.97 40.1307 676.317 43.8853 677.853 48.152C679.474 52.3333 680.285 56.728 680.285 61.336C680.285 65.944 679.474 70.3387 677.853 74.52C676.317 78.7013 673.97 82.456 670.813 85.784C667.741 89.0267 663.901 91.5867 659.293 93.464C654.77 95.3413 649.48 96.28 643.421 96.28ZM631.517 61.336C631.517 64.3227 632.029 66.9253 633.053 69.144C634.077 71.2773 635.485 72.9413 637.277 74.136C639.069 75.2453 641.117 75.8 643.421 75.8C645.725 75.8 647.773 75.2453 649.565 74.136C651.357 72.9413 652.765 71.2773 653.789 69.144C654.813 66.9253 655.325 64.3227 655.325 61.336C655.325 58.3493 654.813 55.7893 653.789 53.656C652.765 51.4373 651.357 49.7733 649.565 48.664C647.773 47.4693 645.725 46.872 643.421 46.872C641.117 46.872 639.069 47.4693 637.277 48.664C635.485 49.7733 634.077 51.4373 633.053 53.656C632.029 55.7893 631.517 58.3493 631.517 61.336ZM734.206 96.28C729.342 96.28 725.118 95.3413 721.534 93.464C717.95 91.5013 715.177 88.6853 713.214 85.016V122.264H688.894V27.672H710.014V37.784C712.403 34.1147 715.347 31.2987 718.846 29.336C722.43 27.3733 726.739 26.392 731.774 26.392C736.297 26.392 740.435 27.2453 744.19 28.952C747.945 30.6587 751.23 33.0907 754.046 36.248C756.862 39.4053 759.038 43.0747 760.574 47.256C762.11 51.4373 762.878 56.0453 762.878 61.08C762.878 67.8213 761.641 73.8373 759.166 79.128C756.691 84.4187 753.278 88.6 748.926 91.672C744.659 94.744 739.753 96.28 734.206 96.28ZM725.758 75.8C727.55 75.8 729.171 75.416 730.622 74.648C732.158 73.88 733.481 72.8133 734.59 71.448C735.699 70.0827 736.553 68.504 737.15 66.712C737.747 64.92 738.046 63 738.046 60.952C738.046 58.8187 737.705 56.8987 737.022 55.192C736.425 53.4853 735.529 52.0347 734.334 50.84C733.139 49.56 731.731 48.5787 730.11 47.896C728.489 47.2133 726.697 46.872 724.734 46.872C723.625 46.872 722.515 47.0427 721.406 47.384C720.382 47.64 719.401 48.0667 718.462 48.664C717.523 49.176 716.585 49.8587 715.646 50.712C714.793 51.5653 713.982 52.5893 713.214 53.784V65.432C713.982 67.3947 715.006 69.1867 716.286 70.808C717.651 72.344 719.145 73.5813 720.766 74.52C722.387 75.3733 724.051 75.8 725.758 75.8ZM833.671 96.28C827.698 96.28 822.407 95.3413 817.799 93.464C813.191 91.5867 809.308 89.0267 806.151 85.784C803.079 82.456 800.732 78.7013 799.111 74.52C797.575 70.3387 796.807 65.944 796.807 61.336C796.807 56.728 797.575 52.3333 799.111 48.152C800.732 43.8853 803.079 40.1307 806.151 36.888C809.308 33.6453 813.191 31.0853 817.799 29.208C822.407 27.3307 827.698 26.392 833.671 26.392C839.73 26.392 845.02 27.3307 849.543 29.208C854.151 31.0853 857.991 33.6453 861.063 36.888C864.22 40.1307 866.567 43.8853 868.103 48.152C869.724 52.3333 870.535 56.728 870.535 61.336C870.535 65.944 869.724 70.3387 868.103 74.52C866.567 78.7013 864.22 82.456 861.063 85.784C857.991 89.0267 854.151 91.5867 849.543 93.464C845.02 95.3413 839.73 96.28 833.671 96.28ZM821.767 61.336C821.767 64.3227 822.279 66.9253 823.303 69.144C824.327 71.2773 825.735 72.9413 827.527 74.136C829.319 75.2453 831.367 75.8 833.671 75.8C835.975 75.8 838.023 75.2453 839.815 74.136C841.607 72.9413 843.015 71.2773 844.039 69.144C845.063 66.9253 845.575 64.3227 845.575 61.336C845.575 58.3493 845.063 55.7893 844.039 53.656C843.015 51.4373 841.607 49.7733 839.815 48.664C838.023 47.4693 835.975 46.872 833.671 46.872C831.367 46.872 829.319 47.4693 827.527 48.664C825.735 49.7733 824.327 51.4373 823.303 53.656C822.279 55.7893 821.767 58.3493 821.767 61.336ZM946.856 95H922.536V57.112C922.536 53.784 921.768 51.3947 920.232 49.944C918.781 48.408 917.075 47.64 915.112 47.64C913.747 47.64 912.296 48.0667 910.76 48.92C909.224 49.688 907.816 50.7973 906.536 52.248C905.256 53.6987 904.232 55.3627 903.464 57.24V95H879.144V27.672H901.032V37.656C902.653 35.1813 904.701 33.1333 907.176 31.512C909.651 29.8053 912.509 28.5253 915.752 27.672C918.995 26.8187 922.536 26.392 926.376 26.392C930.984 26.392 934.653 27.2027 937.384 28.824C940.115 30.4453 942.163 32.536 943.528 35.096C944.893 37.656 945.789 40.344 946.216 43.16C946.643 45.8907 946.856 48.408 946.856 50.712V95ZM1006.18 4.12H1034.08L1063.01 95H1037.66L1032.16 77.208H1007.97L1002.59 95H977.119L1006.18 4.12ZM1028.19 60.568L1020.13 28.568L1011.68 60.568H1028.19ZM1071.26 53.784H1062.94V35.48H1071.26V28.184C1071.26 23.9173 1071.98 20.0773 1073.43 16.664C1074.97 13.2507 1077.1 10.3493 1079.83 7.96C1082.56 5.48533 1085.8 3.60799 1089.56 2.328C1093.31 0.962664 1097.41 0.279999 1101.85 0.279999C1105.18 0.279999 1108.38 0.663999 1111.45 1.432C1114.6 2.11466 1117.8 3.22399 1121.05 4.75999C1124.29 6.296 1127.7 8.216 1131.29 10.52L1122.07 28.952C1119.17 26.392 1116.1 24.3867 1112.86 22.936C1109.61 21.4853 1106.5 20.76 1103.51 20.76C1101.89 20.76 1100.48 21.016 1099.29 21.528C1098.09 21.9547 1097.15 22.68 1096.47 23.704C1095.87 24.6427 1095.58 25.8373 1095.58 27.288V35.48H1133.85V95H1109.53V53.784H1095.58V95H1071.26V53.784ZM1142.31 74.648C1142.31 70.1253 1143.54 66.1573 1146.02 62.744C1148.49 59.2453 1151.91 56.5147 1156.26 54.552C1160.7 52.5893 1165.73 51.608 1171.36 51.608C1174.01 51.608 1176.48 51.8213 1178.79 52.248C1181.18 52.6747 1183.22 53.3147 1184.93 54.168V52.12C1184.93 48.9627 1183.99 46.616 1182.12 45.08C1180.32 43.544 1177.38 42.776 1173.28 42.776C1169.53 42.776 1165.99 43.416 1162.66 44.696C1159.42 45.8907 1156 47.6827 1152.42 50.072L1145.38 34.968C1149.9 32.0667 1154.64 29.9333 1159.59 28.568C1164.62 27.1173 1170 26.392 1175.72 26.392C1186.38 26.392 1194.62 28.824 1200.42 33.688C1206.31 38.4667 1209.25 45.592 1209.25 55.064V68.12C1209.25 70.424 1209.59 72.0453 1210.28 72.984C1210.96 73.8373 1212.15 74.3493 1213.86 74.52V95C1211.9 95.4267 1210.02 95.7253 1208.23 95.896C1206.52 96.152 1204.98 96.28 1203.62 96.28C1199.27 96.28 1195.94 95.512 1193.64 93.976C1191.42 92.3547 1189.97 90.008 1189.28 86.936L1188.77 84.504C1185.78 88.344 1182.33 91.288 1178.4 93.336C1174.48 95.2987 1170.3 96.28 1165.86 96.28C1161.42 96.28 1157.41 95.3413 1153.83 93.464C1150.24 91.5867 1147.43 89.0267 1145.38 85.784C1143.33 82.456 1142.31 78.744 1142.31 74.648ZM1181.73 76.312C1182.67 75.6293 1183.44 74.904 1184.04 74.136C1184.63 73.2827 1184.93 72.4293 1184.93 71.576V66.584C1183.57 66.072 1181.99 65.6453 1180.2 65.304C1178.49 64.9627 1176.95 64.792 1175.59 64.792C1172.69 64.792 1170.21 65.5173 1168.16 66.968C1166.2 68.4187 1165.22 70.2533 1165.22 72.472C1165.22 73.6667 1165.56 74.776 1166.24 75.8C1166.93 76.7387 1167.86 77.5067 1169.06 78.104C1170.25 78.616 1171.62 78.872 1173.16 78.872C1174.61 78.872 1176.1 78.6587 1177.64 78.232C1179.26 77.72 1180.62 77.08 1181.73 76.312ZM1268.34 48.408C1263.65 48.408 1259.38 48.92 1255.54 49.944C1251.7 50.968 1248.84 52.6747 1246.96 55.064V95H1222.64V27.672H1244.92V40.472C1247.31 35.9493 1250.29 32.4933 1253.88 30.104C1257.46 27.6293 1261.26 26.392 1265.27 26.392C1266.21 26.392 1266.85 26.392 1267.19 26.392C1267.61 26.392 1268 26.4347 1268.34 26.52V48.408ZM1275.89 95V27.672H1300.21V95H1275.89ZM1275.89 22.04V1.56H1300.21V22.04H1275.89Z" fill="#FBF9F9"/>
</svg>
