<svg width="939" height="97" viewBox="0 0 939 97" fill="none" xmlns="http://www.w3.org/2000/svg">
<path d="M61.848 33.816C61.848 33.816 61.1227 33.3893 59.672 32.536C58.2213 31.6827 56.3013 30.744 53.912 29.72C51.5227 28.6107 48.92 27.6293 46.104 26.776C43.288 25.9227 40.5147 25.496 37.784 25.496C35.6507 25.496 33.9013 25.8373 32.536 26.52C31.1707 27.2027 30.488 28.3547 30.488 29.976C30.488 31.512 31.1707 32.7493 32.536 33.688C33.9013 34.6267 35.8213 35.48 38.296 36.248C40.856 37.016 43.8853 37.9547 47.384 39.064C53.016 40.7707 57.88 42.7333 61.976 44.952C66.072 47.1707 69.2293 50.0293 71.448 53.528C73.6667 56.9413 74.776 61.5067 74.776 67.224C74.776 72.6853 73.7947 77.2933 71.832 81.048C69.8693 84.7173 67.224 87.6613 63.896 89.88C60.568 92.0987 56.856 93.72 52.76 94.744C48.664 95.6827 44.4827 96.152 40.216 96.152C35.864 96.152 31.2987 95.7253 26.52 94.872C21.8267 93.9333 17.2613 92.696 12.824 91.16C8.38667 89.5387 4.33333 87.6613 0.664 85.528L11.416 63.64C11.416 63.64 12.2693 64.152 13.976 65.176C15.6827 66.2 17.944 67.352 20.76 68.632C23.576 69.912 26.6907 71.064 30.104 72.088C33.6027 73.112 37.1013 73.624 40.6 73.624C43.3307 73.624 45.208 73.2827 46.232 72.6C47.3413 71.832 47.896 70.8507 47.896 69.656C47.896 67.864 46.9573 66.4987 45.08 65.56C43.2027 64.536 40.728 63.5973 37.656 62.744C34.6693 61.8053 31.3413 60.7387 27.672 59.544C22.3813 57.752 18.0293 55.7467 14.616 53.528C11.2027 51.224 8.68533 48.536 7.064 45.464C5.44267 42.3067 4.632 38.5093 4.632 34.072C4.632 27.3307 6.21067 21.6987 9.368 17.176C12.5253 12.6533 16.664 9.24 21.784 6.936C26.9893 4.54666 32.5787 3.352 38.552 3.352C42.9893 3.352 47.256 3.90666 51.352 5.016C55.5333 6.04 59.416 7.31999 63 8.856C66.6693 10.392 69.8693 11.8427 72.6 13.208L61.848 33.816ZM129.501 91.288C127.282 92.2267 124.893 93.1227 122.333 93.976C119.858 94.744 117.298 95.3413 114.653 95.768C112.093 96.1947 109.576 96.408 107.101 96.408C103.432 96.408 100.061 95.8107 96.989 94.616C93.917 93.336 91.4423 91.288 89.565 88.472C87.773 85.5707 86.877 81.688 86.877 76.824V45.976H78.557V27.672H86.877V6.55199H111.197V27.672H124.381V45.976H111.197V68.248C111.197 70.4667 111.666 72.0453 112.605 72.984C113.544 73.8373 114.824 74.264 116.445 74.264C117.64 74.264 119.005 74.0507 120.541 73.624C122.077 73.1973 123.613 72.6853 125.149 72.088L129.501 91.288ZM168.796 96.28C162.823 96.28 157.532 95.3413 152.924 93.464C148.316 91.5867 144.433 89.0267 141.276 85.784C138.204 82.456 135.857 78.7013 134.236 74.52C132.7 70.3387 131.932 65.944 131.932 61.336C131.932 56.728 132.7 52.3333 134.236 48.152C135.857 43.8853 138.204 40.1307 141.276 36.888C144.433 33.6453 148.316 31.0853 152.924 29.208C157.532 27.3307 162.823 26.392 168.796 26.392C174.855 26.392 180.145 27.3307 184.668 29.208C189.276 31.0853 193.116 33.6453 196.188 36.888C199.345 40.1307 201.692 43.8853 203.228 48.152C204.849 52.3333 205.66 56.728 205.66 61.336C205.66 65.944 204.849 70.3387 203.228 74.52C201.692 78.7013 199.345 82.456 196.188 85.784C193.116 89.0267 189.276 91.5867 184.668 93.464C180.145 95.3413 174.855 96.28 168.796 96.28ZM156.892 61.336C156.892 64.3227 157.404 66.9253 158.428 69.144C159.452 71.2773 160.86 72.9413 162.652 74.136C164.444 75.2453 166.492 75.8 168.796 75.8C171.1 75.8 173.148 75.2453 174.94 74.136C176.732 72.9413 178.14 71.2773 179.164 69.144C180.188 66.9253 180.7 64.3227 180.7 61.336C180.7 58.3493 180.188 55.7893 179.164 53.656C178.14 51.4373 176.732 49.7733 174.94 48.664C173.148 47.4693 171.1 46.872 168.796 46.872C166.492 46.872 164.444 47.4693 162.652 48.664C160.86 49.7733 159.452 51.4373 158.428 53.656C157.404 55.7893 156.892 58.3493 156.892 61.336ZM259.965 48.408C255.272 48.408 251.005 48.92 247.165 49.944C243.325 50.968 240.466 52.6747 238.589 55.064V95H214.269V27.672H236.541V40.472C238.93 35.9493 241.917 32.4933 245.501 30.104C249.085 27.6293 252.882 26.392 256.893 26.392C257.832 26.392 258.472 26.392 258.813 26.392C259.24 26.392 259.624 26.4347 259.965 26.52V48.408ZM300.671 96.28C294.783 96.28 289.535 95.384 284.927 93.592C280.319 91.7147 276.436 89.1973 273.279 86.04C270.207 82.8827 267.86 79.256 266.239 75.16C264.618 71.064 263.807 66.7547 263.807 62.232C263.807 55.7467 265.215 49.816 268.031 44.44C270.847 38.9787 274.986 34.6267 280.447 31.384C285.908 28.056 292.65 26.392 300.671 26.392C308.692 26.392 315.434 28.0133 320.895 31.256C326.356 34.4987 330.495 38.7653 333.311 44.056C336.127 49.3467 337.535 55.1067 337.535 61.336C337.535 62.616 337.45 63.9387 337.279 65.304C337.194 66.584 337.066 67.736 336.895 68.76H289.663C289.834 71.1493 290.474 73.112 291.583 74.648C292.778 76.0987 294.228 77.1653 295.935 77.848C297.727 78.5307 299.562 78.872 301.439 78.872C304.084 78.872 306.559 78.2747 308.863 77.08C311.252 75.8853 312.831 74.2213 313.599 72.088L334.207 77.976C332.415 81.56 329.898 84.7173 326.655 87.448C323.498 90.1787 319.743 92.3547 315.391 93.976C311.039 95.512 306.132 96.28 300.671 96.28ZM289.151 54.168H311.423C311.167 51.9493 310.527 50.072 309.503 48.536C308.564 47 307.284 45.8053 305.663 44.952C304.127 44.0987 302.335 43.672 300.287 43.672C298.239 43.672 296.404 44.0987 294.783 44.952C293.247 45.8053 291.967 47 290.943 48.536C290.004 50.072 289.407 51.9493 289.151 54.168ZM372.527 96.28C366.639 96.28 360.836 95.3413 355.119 93.464C349.487 91.5013 344.708 88.6853 340.783 85.016L349.103 70.04C353.284 72.7707 357.295 74.904 361.135 76.44C365.06 77.976 368.602 78.744 371.759 78.744C373.551 78.744 374.874 78.5307 375.727 78.104C376.58 77.592 377.007 76.7813 377.007 75.672C377.007 74.904 376.708 74.264 376.111 73.752C375.514 73.24 374.532 72.728 373.167 72.216C371.887 71.704 370.223 71.1493 368.175 70.552C362.884 68.6747 358.447 66.9253 354.863 65.304C351.364 63.6827 348.719 61.72 346.927 59.416C345.22 57.0267 344.367 53.8693 344.367 49.944C344.367 45.336 345.519 41.2827 347.823 37.784C350.127 34.2 353.412 31.384 357.679 29.336C362.031 27.288 367.236 26.264 373.295 26.264C377.818 26.264 382.34 26.9893 386.863 28.44C391.471 29.8053 395.908 32.3227 400.175 35.992L390.959 50.84C386.692 48.1947 383.066 46.3173 380.079 45.208C377.178 44.0987 374.575 43.544 372.271 43.544C371.162 43.544 370.18 43.672 369.327 43.928C368.559 44.184 367.962 44.568 367.535 45.08C367.108 45.592 366.895 46.2747 366.895 47.128C366.895 47.9813 367.194 48.7067 367.791 49.304C368.388 49.816 369.327 50.328 370.607 50.84C371.887 51.2667 373.508 51.7787 375.471 52.376C381.274 54.0827 386.01 55.832 389.679 57.624C393.348 59.3307 396.036 61.4213 397.743 63.896C399.535 66.3707 400.431 69.6133 400.431 73.624C400.431 80.7067 397.914 86.2533 392.879 90.264C387.93 94.2747 381.146 96.28 372.527 96.28ZM471.546 96.28C465.573 96.28 460.282 95.3413 455.674 93.464C451.066 91.5867 447.183 89.0267 444.026 85.784C440.954 82.456 438.607 78.7013 436.986 74.52C435.45 70.3387 434.682 65.944 434.682 61.336C434.682 56.728 435.45 52.3333 436.986 48.152C438.607 43.8853 440.954 40.1307 444.026 36.888C447.183 33.6453 451.066 31.0853 455.674 29.208C460.282 27.3307 465.573 26.392 471.546 26.392C477.605 26.392 482.895 27.3307 487.418 29.208C492.026 31.0853 495.866 33.6453 498.938 36.888C502.095 40.1307 504.442 43.8853 505.978 48.152C507.599 52.3333 508.41 56.728 508.41 61.336C508.41 65.944 507.599 70.3387 505.978 74.52C504.442 78.7013 502.095 82.456 498.938 85.784C495.866 89.0267 492.026 91.5867 487.418 93.464C482.895 95.3413 477.605 96.28 471.546 96.28ZM459.642 61.336C459.642 64.3227 460.154 66.9253 461.178 69.144C462.202 71.2773 463.61 72.9413 465.402 74.136C467.194 75.2453 469.242 75.8 471.546 75.8C473.85 75.8 475.898 75.2453 477.69 74.136C479.482 72.9413 480.89 71.2773 481.914 69.144C482.938 66.9253 483.45 64.3227 483.45 61.336C483.45 58.3493 482.938 55.7893 481.914 53.656C480.89 51.4373 479.482 49.7733 477.69 48.664C475.898 47.4693 473.85 46.872 471.546 46.872C469.242 46.872 467.194 47.4693 465.402 48.664C463.61 49.7733 462.202 51.4373 461.178 53.656C460.154 55.7893 459.642 58.3493 459.642 61.336ZM584.731 95H560.411V57.112C560.411 53.784 559.643 51.3947 558.107 49.944C556.656 48.408 554.95 47.64 552.987 47.64C551.622 47.64 550.171 48.0667 548.635 48.92C547.099 49.688 545.691 50.7973 544.411 52.248C543.131 53.6987 542.107 55.3627 541.339 57.24V95H517.019V27.672H538.907V37.656C540.528 35.1813 542.576 33.1333 545.051 31.512C547.526 29.8053 550.384 28.5253 553.627 27.672C556.87 26.8187 560.411 26.392 564.251 26.392C568.859 26.392 572.528 27.2027 575.259 28.824C577.99 30.4453 580.038 32.536 581.403 35.096C582.768 37.656 583.664 40.344 584.091 43.16C584.518 45.8907 584.731 48.408 584.731 50.712V95ZM644.05 4.12H671.954L700.882 95H675.538L670.034 77.208H645.842L640.466 95H614.994L644.05 4.12ZM666.066 60.568L658.002 28.568L649.554 60.568H666.066ZM709.13 53.784H700.81V35.48H709.13V28.184C709.13 23.9173 709.855 20.0773 711.306 16.664C712.842 13.2507 714.975 10.3493 717.706 7.96C720.437 5.48533 723.679 3.60799 727.434 2.328C731.189 0.962664 735.285 0.279999 739.722 0.279999C743.05 0.279999 746.25 0.663999 749.322 1.432C752.479 2.11466 755.679 3.22399 758.922 4.75999C762.165 6.296 765.578 8.216 769.162 10.52L759.946 28.952C757.045 26.392 753.973 24.3867 750.73 22.936C747.487 21.4853 744.373 20.76 741.386 20.76C739.765 20.76 738.357 21.016 737.162 21.528C735.967 21.9547 735.029 22.68 734.346 23.704C733.749 24.6427 733.45 25.8373 733.45 27.288V35.48H771.722V95H747.402V53.784H733.45V95H709.13V53.784ZM780.182 74.648C780.182 70.1253 781.419 66.1573 783.894 62.744C786.369 59.2453 789.782 56.5147 794.134 54.552C798.571 52.5893 803.606 51.608 809.238 51.608C811.883 51.608 814.358 51.8213 816.662 52.248C819.051 52.6747 821.099 53.3147 822.806 54.168V52.12C822.806 48.9627 821.867 46.616 819.99 45.08C818.198 43.544 815.254 42.776 811.158 42.776C807.403 42.776 803.862 43.416 800.534 44.696C797.291 45.8907 793.878 47.6827 790.294 50.072L783.254 34.968C787.777 32.0667 792.513 29.9333 797.462 28.568C802.497 27.1173 807.873 26.392 813.59 26.392C824.257 26.392 832.491 28.824 838.294 33.688C844.182 38.4667 847.126 45.592 847.126 55.064V68.12C847.126 70.424 847.467 72.0453 848.15 72.984C848.833 73.8373 850.027 74.3493 851.734 74.52V95C849.771 95.4267 847.894 95.7253 846.102 95.896C844.395 96.152 842.859 96.28 841.494 96.28C837.142 96.28 833.814 95.512 831.51 93.976C829.291 92.3547 827.841 90.008 827.158 86.936L826.646 84.504C823.659 88.344 820.203 91.288 816.278 93.336C812.353 95.2987 808.171 96.28 803.734 96.28C799.297 96.28 795.286 95.3413 791.702 93.464C788.118 91.5867 785.302 89.0267 783.254 85.784C781.206 82.456 780.182 78.744 780.182 74.648ZM819.606 76.312C820.545 75.6293 821.313 74.904 821.91 74.136C822.507 73.2827 822.806 72.4293 822.806 71.576V66.584C821.441 66.072 819.862 65.6453 818.07 65.304C816.363 64.9627 814.827 64.792 813.462 64.792C810.561 64.792 808.086 65.5173 806.038 66.968C804.075 68.4187 803.094 70.2533 803.094 72.472C803.094 73.6667 803.435 74.776 804.118 75.8C804.801 76.7387 805.739 77.5067 806.934 78.104C808.129 78.616 809.494 78.872 811.03 78.872C812.481 78.872 813.974 78.6587 815.51 78.232C817.131 77.72 818.497 77.08 819.606 76.312ZM906.215 48.408C901.522 48.408 897.255 48.92 893.415 49.944C889.575 50.968 886.716 52.6747 884.839 55.064V95H860.519V27.672H882.791V40.472C885.18 35.9493 888.167 32.4933 891.751 30.104C895.335 27.6293 899.132 26.392 903.143 26.392C904.082 26.392 904.722 26.392 905.063 26.392C905.49 26.392 905.874 26.4347 906.215 26.52V48.408ZM913.769 95V27.672H938.089V95H913.769ZM913.769 22.04V1.56H938.089V22.04H913.769Z" fill="#dfdfdf"/>
</svg>
