<svg xmlns="http://www.w3.org/2000/svg" viewBox="0 0 142 57" fill="#0a503d"><path d="M140.32 24.1228C141.493 23.3935 141.852 21.8518 141.123 20.6795L129.238 1.57425C128.509 0.401861 126.967 0.0426583 125.795 0.771952C124.623 1.50125 124.263 3.04286 124.993 4.21525L135.557 21.1977L118.574 31.7617C117.402 32.4909 117.043 34.0326 117.772 35.2049C118.501 36.3773 120.043 36.7365 121.215 36.0072L140.32 24.1228ZM3.42186 56.5562C26.8068 40.3858 47.5283 29.3543 68.8739 23.8524C90.1768 18.3615 112.263 18.3372 138.433 24.4347L139.567 19.5652C112.736 13.3135 89.823 13.2892 67.6259 19.0106C45.4716 24.721 24.1931 36.1141 0.578089 52.4437L3.42186 56.5562Z" fill="#0a503d"></path></svg>