<svg xmlns="http://www.w3.org/2000/svg" viewBox="0 0 142 105" fill="currentColor"><path d="M133.243 1.16646C133.977 0.783937 134.883 1.06954 135.266 1.80437L141.499 13.7791C141.882 14.5139 141.596 15.4197 140.861 15.8022C140.126 16.1847 139.221 15.8991 138.838 15.1643L133.297 4.52011L122.653 10.061C121.918 10.4435 121.012 10.1579 120.63 9.42306C120.247 8.68823 120.533 7.78244 121.268 7.39993L133.243 1.16646ZM1.21933 99.0963C42.32 105.173 69.3378 98.7841 88.9283 82.1826C108.614 65.5002 121.075 38.2947 132.505 2.04591L135.366 2.94806C123.922 39.2424 111.259 67.1914 90.8678 84.4713C70.3812 101.832 42.3683 108.213 0.780536 102.064L1.21933 99.0963Z" fill="currentColor"></path></svg>