<svg xmlns="http://www.w3.org/2000/svg" viewBox="0 0 70 70" fill="currentColor"><path d="M56.8751 23.3334H49.5834V17.5001C49.5834 14.2917 46.9584 11.6667 43.7501 11.6667H8.75008C5.54175 11.6667 2.91675 14.2917 2.91675 17.5001V43.7501C2.91675 46.9584 5.54175 49.5834 8.75008 49.5834C8.75008 54.4251 12.6584 58.3334 17.5001 58.3334C22.3417 58.3334 26.2501 54.4251 26.2501 49.5834H43.7501C43.7501 54.4251 47.6584 58.3334 52.5001 58.3334C57.3417 58.3334 61.2501 54.4251 61.2501 49.5834H64.1667C65.7709 49.5834 67.0834 48.2709 67.0834 46.6667V36.9542C67.0834 35.7001 66.6751 34.4751 65.9167 33.4542L59.2084 24.5001C58.6542 23.7709 57.7792 23.3334 56.8751 23.3334ZM17.5001 52.5001C15.8959 52.5001 14.5834 51.1876 14.5834 49.5834C14.5834 47.9792 15.8959 46.6667 17.5001 46.6667C19.1042 46.6667 20.4167 47.9792 20.4167 49.5834C20.4167 51.1876 19.1042 52.5001 17.5001 52.5001ZM56.8751 27.7084L62.5917 35.0001H49.5834V27.7084H56.8751ZM52.5001 52.5001C50.8959 52.5001 49.5834 51.1876 49.5834 49.5834C49.5834 47.9792 50.8959 46.6667 52.5001 46.6667C54.1042 46.6667 55.4167 47.9792 55.4167 49.5834C55.4167 51.1876 54.1042 52.5001 52.5001 52.5001Z" fill="currentColor"></path></svg>