<svg xmlns="http://www.w3.org/2000/svg" viewBox="0 0 165 66" fill="currentColor"><path d="M163.723 15.0959C164.439 14.6784 164.68 13.7599 164.263 13.0443L157.459 1.38426C157.041 0.668737 156.123 0.42716 155.407 0.844678C154.692 1.2622 154.45 2.18071 154.868 2.89623L160.916 13.2607L150.551 19.3086C149.836 19.7261 149.594 20.6446 150.012 21.3602C150.429 22.0757 151.348 22.3173 152.063 21.8997L163.723 15.0959ZM3.22232 65.6102C23.5373 31.5993 45.3198 14.3869 70.8742 7.92017C96.53 1.42779 126.242 5.69213 162.586 15.251L163.349 12.3497C126.938 2.77329 96.5847 -1.68062 70.1382 5.01184C43.5904 11.73 21.2338 29.6055 0.64679 64.0718L3.22232 65.6102Z" fill="currentColor"></path></svg>