<svg xmlns="http://www.w3.org/2000/svg" viewBox="0 0 135 33" fill="none"><path d="M48.0865 8.03017C41.6303 8.03017 37.5526 8.45439 37.5526 8.45439V11.4773L47.1534 11.3915C50.8057 11.3915 51.6136 12.0719 51.6554 15.555V17.85C49.7011 17.4246 48.6811 17.1279 45.963 17.1279H42.735C37.6801 17.1279 35.1301 17.6796 35.1301 23.4577V25.6183C35.1301 32.1614 37.6801 32.4152 42.735 32.4569H44.5605C46.983 32.4569 49.7869 31.0973 51.6554 30.1619V32.2483H55.8188V14.87C55.8188 8.87862 52.9721 7.98844 48.0865 8.03017ZM51.6554 27.2712C49.744 27.9087 47.2798 29.055 45.2421 29.055H43.3296C40.3159 29.055 39.1232 28.3329 39.1232 25.23V24.0037C39.1232 20.4777 40.1003 20.1786 43.3296 20.1786H46.3015C48.3427 20.1786 49.744 20.3061 51.6554 20.4765V27.2712Z" fill="#EE3342"></path><path d="M81.9851 8.02881H77.824V32.2435H81.9851V8.02881Z" fill="#EE3342"></path><path d="M66.8637 6.49905C66.8637 3.8227 67.4988 3.3127 69.4971 3.3127C70.2181 3.3127 73.2352 3.39847 73.2352 3.39847L73.5737 0.508843C73.5737 0.508843 70.2123 0 68.01 0C63.7213 0 62.7002 2.46308 62.7002 5.98905V8.0418H59.2229V8.24117V11.3348V11.5481H62.7002V32.2414H66.8637V11.5481H73.6629V8.0418H66.8637V6.49905Z" fill="#EE3342"></path><path d="M99.8275 8.03017C93.3701 8.03017 89.2936 8.45439 89.2936 8.45439V11.4773L98.8921 11.3857C102.544 11.3857 103.351 12.0661 103.394 15.5492V17.8442C101.439 17.4188 100.42 17.1221 97.7017 17.1221H94.4759C89.42 17.1221 86.8711 17.6738 86.8711 23.4519V25.6183C86.8711 32.1614 89.4211 32.4152 94.4759 32.4569H96.3015C98.724 32.4569 101.528 31.0973 103.396 30.1619V32.2483H107.56V14.87C107.56 8.87862 104.713 7.98844 99.8275 8.03017ZM103.396 27.2712C101.485 27.9087 99.0207 29.055 96.9819 29.055H95.0671C92.0534 29.055 90.8607 28.3329 90.8607 25.23V24.0037C90.8607 20.4777 91.8367 20.1786 95.0671 20.1786H98.039C100.08 20.1786 101.481 20.3061 103.393 20.4765L103.396 27.2712Z" fill="#EE3342"></path><path d="M117.328 10.748V8.24208H113.165V32.2423H117.328V13.7629C119.24 12.8356 121.67 11.3682 123.703 11.3682L127.307 11.418V8.02881H124.416C122.002 8.02881 119.199 9.64227 117.328 10.748Z" fill="#EE3342"></path><path d="M135 8.02881H130.836V32.2435H135V8.02881Z" fill="#EE3342"></path><path d="M20.9286 11.2749C18.9241 9.26859 16.2858 8.01945 13.4635 7.7404C10.6411 7.46135 7.80931 8.16966 5.45068 9.7446C3.09205 11.3195 1.35255 13.6637 0.528635 16.3775C-0.295282 19.0913 -0.152628 22.0068 0.932285 24.6272C2.0172 27.2477 3.97723 29.4108 6.47834 30.7479C8.97946 32.0851 11.8669 32.5136 14.6485 31.9603C17.4302 31.4071 19.9339 29.9063 21.733 27.7139C23.5321 25.5215 24.5152 22.773 24.5149 19.9368C24.517 18.328 24.2013 16.7346 23.5859 15.2481C22.9704 13.7617 22.0674 12.4114 20.9286 11.2749ZM17.1314 24.4249L14.9002 26.0244L12.3258 22.2875L9.73409 26.0499L7.38692 24.4179L10.1282 20.4399L5.89053 19.0015L6.85953 16.3124L10.8816 17.6766V13.9096H13.6275V17.7554L17.7006 16.3738L18.6696 19.064L14.4307 20.5013L17.1314 24.4249Z" fill="#014F3D"></path></svg>