<svg width="2090" height="124" viewBox="0 0 2090 124" fill="none" xmlns="http://www.w3.org/2000/svg">
<path d="M38.352 3.12H61.264L69.584 31.152L78.032 3.12H100.944L85.584 46.512L92.112 65.072L111.696 3.12H138.832L104.528 94H82.896L69.584 61.488L56.4 94H34.768L0.464 3.12H27.472L47.184 65.072L53.456 46.512L38.352 3.12ZM211.106 94H186.786V56.112C186.786 52.784 186.018 50.3947 184.482 48.944C183.031 47.408 181.197 46.64 178.978 46.64C177.954 46.64 176.674 47.024 175.138 47.792C173.687 48.56 172.279 49.6693 170.914 51.12C169.549 52.5707 168.482 54.2773 167.714 56.24V94H143.394V0.559998H167.714V36.656C170.103 32.9867 173.218 30.2133 177.058 28.336C180.983 26.3733 185.293 25.392 189.986 25.392C194.765 25.392 198.562 26.2027 201.378 27.824C204.194 29.36 206.285 31.3653 207.65 33.84C209.015 36.3147 209.911 38.96 210.338 41.776C210.85 44.592 211.106 47.2373 211.106 49.712V94ZM219.182 73.648C219.182 69.1253 220.419 65.1573 222.894 61.744C225.369 58.2453 228.782 55.5147 233.134 53.552C237.571 51.5893 242.606 50.608 248.238 50.608C250.883 50.608 253.358 50.8213 255.662 51.248C258.051 51.6747 260.099 52.3147 261.806 53.168V51.12C261.806 47.9627 260.867 45.616 258.99 44.08C257.198 42.544 254.254 41.776 250.158 41.776C246.403 41.776 242.862 42.416 239.534 43.696C236.291 44.8907 232.878 46.6827 229.294 49.072L222.254 33.968C226.777 31.0667 231.513 28.9333 236.462 27.568C241.497 26.1173 246.873 25.392 252.59 25.392C263.257 25.392 271.491 27.824 277.294 32.688C283.182 37.4667 286.126 44.592 286.126 54.064V67.12C286.126 69.424 286.467 71.0453 287.15 71.984C287.833 72.8373 289.027 73.3493 290.734 73.52V94C288.771 94.4267 286.894 94.7253 285.102 94.896C283.395 95.152 281.859 95.28 280.494 95.28C276.142 95.28 272.814 94.512 270.51 92.976C268.291 91.3547 266.841 89.008 266.158 85.936L265.646 83.504C262.659 87.344 259.203 90.288 255.278 92.336C251.353 94.2987 247.171 95.28 242.734 95.28C238.297 95.28 234.286 94.3413 230.702 92.464C227.118 90.5867 224.302 88.0267 222.254 84.784C220.206 81.456 219.182 77.744 219.182 73.648ZM258.606 75.312C259.545 74.6293 260.313 73.904 260.91 73.136C261.507 72.2827 261.806 71.4293 261.806 70.576V65.584C260.441 65.072 258.862 64.6453 257.07 64.304C255.363 63.9627 253.827 63.792 252.462 63.792C249.561 63.792 247.086 64.5173 245.038 65.968C243.075 67.4187 242.094 69.2533 242.094 71.472C242.094 72.6667 242.435 73.776 243.118 74.8C243.801 75.7387 244.739 76.5067 245.934 77.104C247.129 77.616 248.494 77.872 250.03 77.872C251.481 77.872 252.974 77.6587 254.51 77.232C256.131 76.72 257.497 76.08 258.606 75.312ZM346.001 90.288C343.782 91.2267 341.393 92.1227 338.833 92.976C336.358 93.744 333.798 94.3413 331.153 94.768C328.593 95.1947 326.076 95.408 323.601 95.408C319.932 95.408 316.561 94.8107 313.489 93.616C310.417 92.336 307.942 90.288 306.065 87.472C304.273 84.5707 303.377 80.688 303.377 75.824V44.976H295.057V26.672H303.377V5.55199H327.697V26.672H340.881V44.976H327.697V67.248C327.697 69.4667 328.166 71.0453 329.105 71.984C330.044 72.8373 331.324 73.264 332.945 73.264C334.14 73.264 335.505 73.0507 337.041 72.624C338.577 72.1973 340.113 71.6853 341.649 71.088L346.001 90.288ZM414.796 95.28C408.823 95.28 403.532 94.3413 398.924 92.464C394.316 90.5867 390.433 88.0267 387.276 84.784C384.204 81.456 381.857 77.7013 380.236 73.52C378.7 69.3387 377.932 64.944 377.932 60.336C377.932 55.728 378.7 51.3333 380.236 47.152C381.857 42.8853 384.204 39.1307 387.276 35.888C390.433 32.6453 394.316 30.0853 398.924 28.208C403.532 26.3307 408.823 25.392 414.796 25.392C420.855 25.392 426.145 26.3307 430.668 28.208C435.276 30.0853 439.116 32.6453 442.188 35.888C445.345 39.1307 447.692 42.8853 449.228 47.152C450.849 51.3333 451.66 55.728 451.66 60.336C451.66 64.944 450.849 69.3387 449.228 73.52C447.692 77.7013 445.345 81.456 442.188 84.784C439.116 88.0267 435.276 90.5867 430.668 92.464C426.145 94.3413 420.855 95.28 414.796 95.28ZM402.892 60.336C402.892 63.3227 403.404 65.9253 404.428 68.144C405.452 70.2773 406.86 71.9413 408.652 73.136C410.444 74.2453 412.492 74.8 414.796 74.8C417.1 74.8 419.148 74.2453 420.94 73.136C422.732 71.9413 424.14 70.2773 425.164 68.144C426.188 65.9253 426.7 63.3227 426.7 60.336C426.7 57.3493 426.188 54.7893 425.164 52.656C424.14 50.4373 422.732 48.7733 420.94 47.664C419.148 46.4693 417.1 45.872 414.796 45.872C412.492 45.872 410.444 46.4693 408.652 47.664C406.86 48.7733 405.452 50.4373 404.428 52.656C403.404 54.7893 402.892 57.3493 402.892 60.336ZM459.629 70.96V26.672H483.949V65.456C483.949 68.3573 484.589 70.6613 485.869 72.368C487.234 73.9893 489.069 74.8 491.373 74.8C492.653 74.8 493.933 74.6293 495.213 74.288C496.493 73.9467 497.773 73.264 499.053 72.24C500.418 71.216 501.741 69.7653 503.021 67.888V26.672H527.341V67.12C527.341 69.424 527.682 71.0453 528.365 71.984C529.048 72.8373 530.242 73.3493 531.949 73.52V94C529.816 94.4267 527.896 94.7253 526.189 94.896C524.482 95.152 522.989 95.28 521.709 95.28C517.613 95.28 514.37 94.512 511.981 92.976C509.592 91.44 508.056 89.0933 507.373 85.936L506.861 83.504C503.704 87.6853 499.906 90.7147 495.469 92.592C491.117 94.384 486.168 95.28 480.621 95.28C473.88 95.28 468.674 93.1893 465.005 89.008C461.421 84.8267 459.629 78.8107 459.629 70.96ZM587.59 47.408C582.897 47.408 578.63 47.92 574.79 48.944C570.95 49.968 568.091 51.6747 566.214 54.064V94H541.894V26.672H564.166V39.472C566.555 34.9493 569.542 31.4933 573.126 29.104C576.71 26.6293 580.507 25.392 584.518 25.392C585.457 25.392 586.097 25.392 586.438 25.392C586.865 25.392 587.249 25.4347 587.59 25.52V47.408ZM654.549 95.28C648.576 95.28 643.285 94.3413 638.677 92.464C634.154 90.5867 630.314 88.0267 627.157 84.784C624 81.456 621.61 77.7013 619.989 73.52C618.368 69.3387 617.557 64.944 617.557 60.336C617.557 54.192 618.965 48.4747 621.781 43.184C624.682 37.808 628.864 33.4987 634.325 30.256C639.872 27.0133 646.613 25.392 654.549 25.392C662.656 25.392 669.482 27.0987 675.029 30.512C680.576 33.9253 684.714 38.32 687.445 43.696L663.765 50.864C662.656 49.2427 661.29 48.0053 659.669 47.152C658.133 46.2987 656.384 45.872 654.421 45.872C652.202 45.872 650.197 46.4693 648.405 47.664C646.613 48.7733 645.162 50.3947 644.053 52.528C643.029 54.6613 642.517 57.264 642.517 60.336C642.517 63.3227 643.029 65.9253 644.053 68.144C645.162 70.2773 646.613 71.9413 648.405 73.136C650.197 74.2453 652.202 74.8 654.421 74.8C655.786 74.8 657.024 74.6293 658.133 74.288C659.242 73.8613 660.266 73.264 661.205 72.496C662.229 71.728 663.082 70.832 663.765 69.808L687.445 76.976C685.653 80.56 683.178 83.7173 680.021 86.448C676.949 89.1787 673.28 91.3547 669.013 92.976C664.832 94.512 660.01 95.28 654.549 95.28ZM694.504 70.96V26.672H718.824V65.456C718.824 68.3573 719.464 70.6613 720.744 72.368C722.109 73.9893 723.944 74.8 726.248 74.8C727.528 74.8 728.808 74.6293 730.088 74.288C731.368 73.9467 732.648 73.264 733.928 72.24C735.293 71.216 736.616 69.7653 737.896 67.888V26.672H762.216V67.12C762.216 69.424 762.557 71.0453 763.24 71.984C763.923 72.8373 765.117 73.3493 766.824 73.52V94C764.691 94.4267 762.771 94.7253 761.064 94.896C759.357 95.152 757.864 95.28 756.584 95.28C752.488 95.28 749.245 94.512 746.856 92.976C744.467 91.44 742.931 89.0933 742.248 85.936L741.736 83.504C738.579 87.6853 734.781 90.7147 730.344 92.592C725.992 94.384 721.043 95.28 715.496 95.28C708.755 95.28 703.549 93.1893 699.88 89.008C696.296 84.8267 694.504 78.8107 694.504 70.96ZM803.777 95.28C797.889 95.28 792.086 94.3413 786.369 92.464C780.737 90.5013 775.958 87.6853 772.033 84.016L780.353 69.04C784.534 71.7707 788.545 73.904 792.385 75.44C796.31 76.976 799.852 77.744 803.009 77.744C804.801 77.744 806.124 77.5307 806.977 77.104C807.83 76.592 808.257 75.7813 808.257 74.672C808.257 73.904 807.958 73.264 807.361 72.752C806.764 72.24 805.782 71.728 804.417 71.216C803.137 70.704 801.473 70.1493 799.425 69.552C794.134 67.6747 789.697 65.9253 786.113 64.304C782.614 62.6827 779.969 60.72 778.177 58.416C776.47 56.0267 775.617 52.8693 775.617 48.944C775.617 44.336 776.769 40.2827 779.073 36.784C781.377 33.2 784.662 30.384 788.929 28.336C793.281 26.288 798.486 25.264 804.545 25.264C809.068 25.264 813.59 25.9893 818.113 27.44C822.721 28.8053 827.158 31.3227 831.425 34.992L822.209 49.84C817.942 47.1947 814.316 45.3173 811.329 44.208C808.428 43.0987 805.825 42.544 803.521 42.544C802.412 42.544 801.43 42.672 800.577 42.928C799.809 43.184 799.212 43.568 798.785 44.08C798.358 44.592 798.145 45.2747 798.145 46.128C798.145 46.9813 798.444 47.7067 799.041 48.304C799.638 48.816 800.577 49.328 801.857 49.84C803.137 50.2667 804.758 50.7787 806.721 51.376C812.524 53.0827 817.26 54.832 820.929 56.624C824.598 58.3307 827.286 60.4213 828.993 62.896C830.785 65.3707 831.681 68.6133 831.681 72.624C831.681 79.7067 829.164 85.2533 824.129 89.264C819.18 93.2747 812.396 95.28 803.777 95.28ZM887.376 90.288C885.157 91.2267 882.768 92.1227 880.208 92.976C877.733 93.744 875.173 94.3413 872.528 94.768C869.968 95.1947 867.451 95.408 864.976 95.408C861.307 95.408 857.936 94.8107 854.864 93.616C851.792 92.336 849.317 90.288 847.44 87.472C845.648 84.5707 844.752 80.688 844.752 75.824V44.976H836.432V26.672H844.752V5.55199H869.072V26.672H882.256V44.976H869.072V67.248C869.072 69.4667 869.541 71.0453 870.48 71.984C871.419 72.8373 872.699 73.264 874.32 73.264C875.515 73.264 876.88 73.0507 878.416 72.624C879.952 72.1973 881.488 71.6853 883.024 71.088L887.376 90.288ZM926.671 95.28C920.698 95.28 915.407 94.3413 910.799 92.464C906.191 90.5867 902.308 88.0267 899.151 84.784C896.079 81.456 893.732 77.7013 892.111 73.52C890.575 69.3387 889.807 64.944 889.807 60.336C889.807 55.728 890.575 51.3333 892.111 47.152C893.732 42.8853 896.079 39.1307 899.151 35.888C902.308 32.6453 906.191 30.0853 910.799 28.208C915.407 26.3307 920.698 25.392 926.671 25.392C932.73 25.392 938.02 26.3307 942.543 28.208C947.151 30.0853 950.991 32.6453 954.063 35.888C957.22 39.1307 959.567 42.8853 961.103 47.152C962.724 51.3333 963.535 55.728 963.535 60.336C963.535 64.944 962.724 69.3387 961.103 73.52C959.567 77.7013 957.22 81.456 954.063 84.784C950.991 88.0267 947.151 90.5867 942.543 92.464C938.02 94.3413 932.73 95.28 926.671 95.28ZM914.767 60.336C914.767 63.3227 915.279 65.9253 916.303 68.144C917.327 70.2773 918.735 71.9413 920.527 73.136C922.319 74.2453 924.367 74.8 926.671 74.8C928.975 74.8 931.023 74.2453 932.815 73.136C934.607 71.9413 936.015 70.2773 937.039 68.144C938.063 65.9253 938.575 63.3227 938.575 60.336C938.575 57.3493 938.063 54.7893 937.039 52.656C936.015 50.4373 934.607 48.7733 932.815 47.664C931.023 46.4693 928.975 45.872 926.671 45.872C924.367 45.872 922.319 46.4693 920.527 47.664C918.735 48.7733 917.327 50.4373 916.303 52.656C915.279 54.7893 914.767 57.3493 914.767 60.336ZM1080.69 94H1056.37V56.112C1056.37 52.784 1055.69 50.3947 1054.32 48.944C1053.04 47.408 1051.46 46.64 1049.58 46.64C1047.71 46.64 1045.66 47.536 1043.44 49.328C1041.22 51.12 1039.6 53.424 1038.58 56.24V94H1014.26V56.112C1014.26 52.784 1013.57 50.3947 1012.21 48.944C1010.93 47.408 1009.35 46.64 1007.47 46.64C1005.59 46.64 1003.55 47.536 1001.33 49.328C999.109 51.12 997.488 53.424 996.464 56.24V94H972.144V26.672H994.032V36.656C996.421 32.9867 999.707 30.2133 1003.89 28.336C1008.07 26.3733 1013.02 25.392 1018.74 25.392C1024.28 25.392 1028.46 26.5867 1031.28 28.976C1034.1 31.3653 1035.97 34.0533 1036.91 37.04C1039.3 33.3707 1042.59 30.512 1046.77 28.464C1050.95 26.416 1055.64 25.392 1060.85 25.392C1065.29 25.392 1068.83 26.2027 1071.47 27.824C1074.12 29.4453 1076.08 31.536 1077.36 34.096C1078.73 36.656 1079.62 39.344 1080.05 42.16C1080.47 44.8907 1080.69 47.408 1080.69 49.712V94ZM1125.67 95.28C1119.78 95.28 1114.54 94.384 1109.93 92.592C1105.32 90.7147 1101.44 88.1973 1098.28 85.04C1095.21 81.8827 1092.86 78.256 1091.24 74.16C1089.62 70.064 1088.81 65.7547 1088.81 61.232C1088.81 54.7467 1090.22 48.816 1093.03 43.44C1095.85 37.9787 1099.99 33.6267 1105.45 30.384C1110.91 27.056 1117.65 25.392 1125.67 25.392C1133.69 25.392 1140.43 27.0133 1145.9 30.256C1151.36 33.4987 1155.5 37.7653 1158.31 43.056C1161.13 48.3467 1162.54 54.1067 1162.54 60.336C1162.54 61.616 1162.45 62.9387 1162.28 64.304C1162.19 65.584 1162.07 66.736 1161.9 67.76H1114.66C1114.83 70.1493 1115.47 72.112 1116.58 73.648C1117.78 75.0987 1119.23 76.1653 1120.94 76.848C1122.73 77.5307 1124.56 77.872 1126.44 77.872C1129.08 77.872 1131.56 77.2747 1133.86 76.08C1136.25 74.8853 1137.83 73.2213 1138.6 71.088L1159.21 76.976C1157.42 80.56 1154.9 83.7173 1151.66 86.448C1148.5 89.1787 1144.74 91.3547 1140.39 92.976C1136.04 94.512 1131.13 95.28 1125.67 95.28ZM1114.15 53.168H1136.42C1136.17 50.9493 1135.53 49.072 1134.5 47.536C1133.56 46 1132.28 44.8053 1130.66 43.952C1129.13 43.0987 1127.34 42.672 1125.29 42.672C1123.24 42.672 1121.4 43.0987 1119.78 43.952C1118.25 44.8053 1116.97 46 1115.94 47.536C1115 49.072 1114.41 50.9493 1114.15 53.168ZM1216.22 47.408C1211.52 47.408 1207.26 47.92 1203.42 48.944C1199.58 49.968 1196.72 51.6747 1194.84 54.064V94H1170.52V26.672H1192.79V39.472C1195.18 34.9493 1198.17 31.4933 1201.75 29.104C1205.34 26.6293 1209.13 25.392 1213.14 25.392C1214.08 25.392 1214.72 25.392 1215.06 25.392C1215.49 25.392 1215.87 25.4347 1216.22 25.52V47.408ZM1250.78 95.28C1244.89 95.28 1239.09 94.3413 1233.37 92.464C1227.74 90.5013 1222.96 87.6853 1219.03 84.016L1227.35 69.04C1231.53 71.7707 1235.55 73.904 1239.39 75.44C1243.31 76.976 1246.85 77.744 1250.01 77.744C1251.8 77.744 1253.12 77.5307 1253.98 77.104C1254.83 76.592 1255.26 75.7813 1255.26 74.672C1255.26 73.904 1254.96 73.264 1254.36 72.752C1253.76 72.24 1252.78 71.728 1251.42 71.216C1250.14 70.704 1248.47 70.1493 1246.43 69.552C1241.13 67.6747 1236.7 65.9253 1233.11 64.304C1229.61 62.6827 1226.97 60.72 1225.18 58.416C1223.47 56.0267 1222.62 52.8693 1222.62 48.944C1222.62 44.336 1223.77 40.2827 1226.07 36.784C1228.38 33.2 1231.66 30.384 1235.93 28.336C1240.28 26.288 1245.49 25.264 1251.55 25.264C1256.07 25.264 1260.59 25.9893 1265.11 27.44C1269.72 28.8053 1274.16 31.3227 1278.43 34.992L1269.21 49.84C1264.94 47.1947 1261.32 45.3173 1258.33 44.208C1255.43 43.0987 1252.83 42.544 1250.52 42.544C1249.41 42.544 1248.43 42.672 1247.58 42.928C1246.81 43.184 1246.21 43.568 1245.79 44.08C1245.36 44.592 1245.15 45.2747 1245.15 46.128C1245.15 46.9813 1245.44 47.7067 1246.04 48.304C1246.64 48.816 1247.58 49.328 1248.86 49.84C1250.14 50.2667 1251.76 50.7787 1253.72 51.376C1259.52 53.0827 1264.26 54.832 1267.93 56.624C1271.6 58.3307 1274.29 60.4213 1275.99 62.896C1277.79 65.3707 1278.68 68.6133 1278.68 72.624C1278.68 79.7067 1276.16 85.2533 1271.13 89.264C1266.18 93.2747 1259.4 95.28 1250.78 95.28ZM1343.65 95.28C1337.76 95.28 1331.96 94.3413 1326.24 92.464C1320.61 90.5013 1315.83 87.6853 1311.91 84.016L1320.23 69.04C1324.41 71.7707 1328.42 73.904 1332.26 75.44C1336.19 76.976 1339.73 77.744 1342.88 77.744C1344.68 77.744 1346 77.5307 1346.85 77.104C1347.71 76.592 1348.13 75.7813 1348.13 74.672C1348.13 73.904 1347.83 73.264 1347.24 72.752C1346.64 72.24 1345.66 71.728 1344.29 71.216C1343.01 70.704 1341.35 70.1493 1339.3 69.552C1334.01 67.6747 1329.57 65.9253 1325.99 64.304C1322.49 62.6827 1319.84 60.72 1318.05 58.416C1316.35 56.0267 1315.49 52.8693 1315.49 48.944C1315.49 44.336 1316.64 40.2827 1318.95 36.784C1321.25 33.2 1324.54 30.384 1328.8 28.336C1333.16 26.288 1338.36 25.264 1344.42 25.264C1348.94 25.264 1353.47 25.9893 1357.99 27.44C1362.6 28.8053 1367.03 31.3227 1371.3 34.992L1362.08 49.84C1357.82 47.1947 1354.19 45.3173 1351.2 44.208C1348.3 43.0987 1345.7 42.544 1343.4 42.544C1342.29 42.544 1341.31 42.672 1340.45 42.928C1339.68 43.184 1339.09 43.568 1338.66 44.08C1338.23 44.592 1338.02 45.2747 1338.02 46.128C1338.02 46.9813 1338.32 47.7067 1338.92 48.304C1339.51 48.816 1340.45 49.328 1341.73 49.84C1343.01 50.2667 1344.63 50.7787 1346.6 51.376C1352.4 53.0827 1357.13 54.832 1360.8 56.624C1364.47 58.3307 1367.16 60.4213 1368.87 62.896C1370.66 65.3707 1371.56 68.6133 1371.56 72.624C1371.56 79.7067 1369.04 85.2533 1364 89.264C1359.05 93.2747 1352.27 95.28 1343.65 95.28ZM1377.06 73.648C1377.06 69.1253 1378.29 65.1573 1380.77 61.744C1383.24 58.2453 1386.66 55.5147 1391.01 53.552C1395.45 51.5893 1400.48 50.608 1406.11 50.608C1408.76 50.608 1411.23 50.8213 1413.54 51.248C1415.93 51.6747 1417.97 52.3147 1419.68 53.168V51.12C1419.68 47.9627 1418.74 45.616 1416.87 44.08C1415.07 42.544 1412.13 41.776 1408.03 41.776C1404.28 41.776 1400.74 42.416 1397.41 43.696C1394.17 44.8907 1390.75 46.6827 1387.17 49.072L1380.13 33.968C1384.65 31.0667 1389.39 28.9333 1394.34 27.568C1399.37 26.1173 1404.75 25.392 1410.47 25.392C1421.13 25.392 1429.37 27.824 1435.17 32.688C1441.06 37.4667 1444 44.592 1444 54.064V67.12C1444 69.424 1444.34 71.0453 1445.03 71.984C1445.71 72.8373 1446.9 73.3493 1448.61 73.52V94C1446.65 94.4267 1444.77 94.7253 1442.98 94.896C1441.27 95.152 1439.73 95.28 1438.37 95.28C1434.02 95.28 1430.69 94.512 1428.39 92.976C1426.17 91.3547 1424.72 89.008 1424.03 85.936L1423.52 83.504C1420.53 87.344 1417.08 90.288 1413.15 92.336C1409.23 94.2987 1405.05 95.28 1400.61 95.28C1396.17 95.28 1392.16 94.3413 1388.58 92.464C1384.99 90.5867 1382.18 88.0267 1380.13 84.784C1378.08 81.456 1377.06 77.744 1377.06 73.648ZM1416.48 75.312C1417.42 74.6293 1418.19 73.904 1418.79 73.136C1419.38 72.2827 1419.68 71.4293 1419.68 70.576V65.584C1418.32 65.072 1416.74 64.6453 1414.95 64.304C1413.24 63.9627 1411.7 63.792 1410.34 63.792C1407.44 63.792 1404.96 64.5173 1402.91 65.968C1400.95 67.4187 1399.97 69.2533 1399.97 71.472C1399.97 72.6667 1400.31 73.776 1400.99 74.8C1401.68 75.7387 1402.61 76.5067 1403.81 77.104C1405 77.616 1406.37 77.872 1407.91 77.872C1409.36 77.872 1410.85 77.6587 1412.39 77.232C1414.01 76.72 1415.37 76.08 1416.48 75.312ZM1453.88 100.784C1455.84 101.467 1457.64 101.979 1459.26 102.32C1460.96 102.747 1462.5 102.96 1463.87 102.96C1465.66 102.96 1467.15 102.619 1468.35 101.936C1469.54 101.339 1470.48 100.357 1471.16 98.992C1471.84 97.6267 1472.27 95.9627 1472.44 94L1447.99 26.672H1472.95L1485.75 69.04L1496.12 26.672H1518.78L1495.99 102.064C1494.71 106.416 1492.62 110.213 1489.72 113.456C1486.82 116.784 1483.36 119.344 1479.35 121.136C1475.34 123.013 1471.03 123.952 1466.43 123.952C1464.29 123.952 1462.16 123.739 1460.03 123.312C1457.98 122.971 1455.93 122.373 1453.88 121.52V100.784ZM1547.43 73.648C1547.43 69.1253 1548.67 65.1573 1551.14 61.744C1553.62 58.2453 1557.03 55.5147 1561.38 53.552C1565.82 51.5893 1570.86 50.608 1576.49 50.608C1579.13 50.608 1581.61 50.8213 1583.91 51.248C1586.3 51.6747 1588.35 52.3147 1590.06 53.168V51.12C1590.06 47.9627 1589.12 45.616 1587.24 44.08C1585.45 42.544 1582.5 41.776 1578.41 41.776C1574.65 41.776 1571.11 42.416 1567.78 43.696C1564.54 44.8907 1561.13 46.6827 1557.54 49.072L1550.5 33.968C1555.03 31.0667 1559.76 28.9333 1564.71 27.568C1569.75 26.1173 1575.12 25.392 1580.84 25.392C1591.51 25.392 1599.74 27.824 1605.54 32.688C1611.43 37.4667 1614.38 44.592 1614.38 54.064V67.12C1614.38 69.424 1614.72 71.0453 1615.4 71.984C1616.08 72.8373 1617.28 73.3493 1618.98 73.52V94C1617.02 94.4267 1615.14 94.7253 1613.35 94.896C1611.65 95.152 1610.11 95.28 1608.74 95.28C1604.39 95.28 1601.06 94.512 1598.76 92.976C1596.54 91.3547 1595.09 89.008 1594.41 85.936L1593.9 83.504C1590.91 87.344 1587.45 90.288 1583.53 92.336C1579.6 94.2987 1575.42 95.28 1570.98 95.28C1566.55 95.28 1562.54 94.3413 1558.95 92.464C1555.37 90.5867 1552.55 88.0267 1550.5 84.784C1548.46 81.456 1547.43 77.744 1547.43 73.648ZM1586.86 75.312C1587.79 74.6293 1588.56 73.904 1589.16 73.136C1589.76 72.2827 1590.06 71.4293 1590.06 70.576V65.584C1588.69 65.072 1587.11 64.6453 1585.32 64.304C1583.61 63.9627 1582.08 63.792 1580.71 63.792C1577.81 63.792 1575.34 64.5173 1573.29 65.968C1571.33 67.4187 1570.34 69.2533 1570.34 71.472C1570.34 72.6667 1570.69 73.776 1571.37 74.8C1572.05 75.7387 1572.99 76.5067 1574.18 77.104C1575.38 77.616 1576.74 77.872 1578.28 77.872C1579.73 77.872 1581.22 77.6587 1582.76 77.232C1584.38 76.72 1585.75 76.08 1586.86 75.312ZM1670.65 95.28C1665.61 95.28 1661.26 94.2987 1657.59 92.336C1653.92 90.288 1651.02 87.344 1648.89 83.504V94H1627.77V0.559998H1652.09V36.656C1654.05 32.9867 1656.83 30.2133 1660.41 28.336C1663.99 26.3733 1668.22 25.392 1673.08 25.392C1677.18 25.392 1680.97 26.288 1684.47 28.08C1687.97 29.7867 1691 32.2187 1693.56 35.376C1696.21 38.5333 1698.25 42.288 1699.71 46.64C1701.16 50.9067 1701.88 55.5573 1701.88 60.592C1701.88 65.5413 1701.07 70.1493 1699.45 74.416C1697.91 78.5973 1695.74 82.2667 1692.92 85.424C1690.19 88.5813 1686.91 91.0133 1683.07 92.72C1679.31 94.4267 1675.17 95.28 1670.65 95.28ZM1663.61 74.8C1665.57 74.8 1667.36 74.4587 1668.99 73.776C1670.61 73.0933 1672.01 72.1547 1673.21 70.96C1674.4 69.68 1675.3 68.1867 1675.9 66.48C1676.58 64.7733 1676.92 62.8533 1676.92 60.72C1676.92 57.9893 1676.37 55.5147 1675.26 53.296C1674.23 50.992 1672.78 49.2 1670.91 47.92C1669.11 46.5547 1667.02 45.872 1664.63 45.872C1662.93 45.872 1661.26 46.2987 1659.64 47.152C1658.02 48.0053 1656.53 49.2 1655.16 50.736C1653.88 52.1867 1652.86 53.8933 1652.09 55.856V67.888C1652.86 68.9973 1653.67 70.0213 1654.52 70.96C1655.46 71.8133 1656.4 72.5387 1657.34 73.136C1658.28 73.648 1659.26 74.0747 1660.28 74.416C1661.39 74.672 1662.5 74.8 1663.61 74.8ZM1743.8 95.28C1737.82 95.28 1732.53 94.3413 1727.92 92.464C1723.32 90.5867 1719.43 88.0267 1716.28 84.784C1713.2 81.456 1710.86 77.7013 1709.24 73.52C1707.7 69.3387 1706.93 64.944 1706.93 60.336C1706.93 55.728 1707.7 51.3333 1709.24 47.152C1710.86 42.8853 1713.2 39.1307 1716.28 35.888C1719.43 32.6453 1723.32 30.0853 1727.92 28.208C1732.53 26.3307 1737.82 25.392 1743.8 25.392C1749.85 25.392 1755.15 26.3307 1759.67 28.208C1764.28 30.0853 1768.12 32.6453 1771.19 35.888C1774.35 39.1307 1776.69 42.8853 1778.23 47.152C1779.85 51.3333 1780.66 55.728 1780.66 60.336C1780.66 64.944 1779.85 69.3387 1778.23 73.52C1776.69 77.7013 1774.35 81.456 1771.19 84.784C1768.12 88.0267 1764.28 90.5867 1759.67 92.464C1755.15 94.3413 1749.85 95.28 1743.8 95.28ZM1731.89 60.336C1731.89 63.3227 1732.4 65.9253 1733.43 68.144C1734.45 70.2773 1735.86 71.9413 1737.65 73.136C1739.44 74.2453 1741.49 74.8 1743.8 74.8C1746.1 74.8 1748.15 74.2453 1749.94 73.136C1751.73 71.9413 1753.14 70.2773 1754.16 68.144C1755.19 65.9253 1755.7 63.3227 1755.7 60.336C1755.7 57.3493 1755.19 54.7893 1754.16 52.656C1753.14 50.4373 1751.73 48.7733 1749.94 47.664C1748.15 46.4693 1746.1 45.872 1743.8 45.872C1741.49 45.872 1739.44 46.4693 1737.65 47.664C1735.86 48.7733 1734.45 50.4373 1733.43 52.656C1732.4 54.7893 1731.89 57.3493 1731.89 60.336ZM1788.63 70.96V26.672H1812.95V65.456C1812.95 68.3573 1813.59 70.6613 1814.87 72.368C1816.23 73.9893 1818.07 74.8 1820.37 74.8C1821.65 74.8 1822.93 74.6293 1824.21 74.288C1825.49 73.9467 1826.77 73.264 1828.05 72.24C1829.42 71.216 1830.74 69.7653 1832.02 67.888V26.672H1856.34V67.12C1856.34 69.424 1856.68 71.0453 1857.37 71.984C1858.05 72.8373 1859.24 73.3493 1860.95 73.52V94C1858.82 94.4267 1856.9 94.7253 1855.19 94.896C1853.48 95.152 1851.99 95.28 1850.71 95.28C1846.61 95.28 1843.37 94.512 1840.98 92.976C1838.59 91.44 1837.06 89.0933 1836.37 85.936L1835.86 83.504C1832.7 87.6853 1828.91 90.7147 1824.47 92.592C1820.12 94.384 1815.17 95.28 1809.62 95.28C1802.88 95.28 1797.67 93.1893 1794.01 89.008C1790.42 84.8267 1788.63 78.8107 1788.63 70.96ZM1917.63 90.288C1915.41 91.2267 1913.02 92.1227 1910.46 92.976C1907.98 93.744 1905.42 94.3413 1902.78 94.768C1900.22 95.1947 1897.7 95.408 1895.23 95.408C1891.56 95.408 1888.19 94.8107 1885.11 93.616C1882.04 92.336 1879.57 90.288 1877.69 87.472C1875.9 84.5707 1875 80.688 1875 75.824V44.976H1866.68V26.672H1875V5.55199H1899.32V26.672H1912.51V44.976H1899.32V67.248C1899.32 69.4667 1899.79 71.0453 1900.73 71.984C1901.67 72.8373 1902.95 73.264 1904.57 73.264C1905.76 73.264 1907.13 73.0507 1908.67 72.624C1910.2 72.1973 1911.74 71.6853 1913.27 71.088L1917.63 90.288ZM1952.63 70.96V26.672H1976.95V65.456C1976.95 68.3573 1977.59 70.6613 1978.87 72.368C1980.23 73.9893 1982.07 74.8 1984.37 74.8C1985.65 74.8 1986.93 74.6293 1988.21 74.288C1989.49 73.9467 1990.77 73.264 1992.05 72.24C1993.42 71.216 1994.74 69.7653 1996.02 67.888V26.672H2020.34V67.12C2020.34 69.424 2020.68 71.0453 2021.37 71.984C2022.05 72.8373 2023.24 73.3493 2024.95 73.52V94C2022.82 94.4267 2020.9 94.7253 2019.19 94.896C2017.48 95.152 2015.99 95.28 2014.71 95.28C2010.61 95.28 2007.37 94.512 2004.98 92.976C2002.59 91.44 2001.06 89.0933 2000.37 85.936L1999.86 83.504C1996.7 87.6853 1992.91 90.7147 1988.47 92.592C1984.12 94.384 1979.17 95.28 1973.62 95.28C1966.88 95.28 1961.67 93.1893 1958.01 89.008C1954.42 84.8267 1952.63 78.8107 1952.63 70.96ZM2061.9 95.28C2056.01 95.28 2050.21 94.3413 2044.49 92.464C2038.86 90.5013 2034.08 87.6853 2030.16 84.016L2038.48 69.04C2042.66 71.7707 2046.67 73.904 2050.51 75.44C2054.44 76.976 2057.98 77.744 2061.13 77.744C2062.93 77.744 2064.25 77.5307 2065.1 77.104C2065.96 76.592 2066.38 75.7813 2066.38 74.672C2066.38 73.904 2066.08 73.264 2065.49 72.752C2064.89 72.24 2063.91 71.728 2062.54 71.216C2061.26 70.704 2059.6 70.1493 2057.55 69.552C2052.26 67.6747 2047.82 65.9253 2044.24 64.304C2040.74 62.6827 2038.09 60.72 2036.3 58.416C2034.6 56.0267 2033.74 52.8693 2033.74 48.944C2033.74 44.336 2034.89 40.2827 2037.2 36.784C2039.5 33.2 2042.79 30.384 2047.05 28.336C2051.41 26.288 2056.61 25.264 2062.67 25.264C2067.19 25.264 2071.72 25.9893 2076.24 27.44C2080.85 28.8053 2085.28 31.3227 2089.55 34.992L2080.33 49.84C2076.07 47.1947 2072.44 45.3173 2069.45 44.208C2066.55 43.0987 2063.95 42.544 2061.65 42.544C2060.54 42.544 2059.56 42.672 2058.7 42.928C2057.93 43.184 2057.34 43.568 2056.91 44.08C2056.48 44.592 2056.27 45.2747 2056.27 46.128C2056.27 46.9813 2056.57 47.7067 2057.17 48.304C2057.76 48.816 2058.7 49.328 2059.98 49.84C2061.26 50.2667 2062.88 50.7787 2064.85 51.376C2070.65 53.0827 2075.38 54.832 2079.05 56.624C2082.72 58.3307 2085.41 60.4213 2087.12 62.896C2088.91 65.3707 2089.81 68.6133 2089.81 72.624C2089.81 79.7067 2087.29 85.2533 2082.25 89.264C2077.3 93.2747 2070.52 95.28 2061.9 95.28Z" fill="#FBF9F9"/>
</svg>
