<svg width="1125" height="124" viewBox="0 0 1125 124" fill="none" xmlns="http://www.w3.org/2000/svg">
<path d="M38.352 3.12H61.264L69.584 31.152L78.032 3.12H100.944L85.584 46.512L92.112 65.072L111.696 3.12H138.832L104.528 94H82.896L69.584 61.488L56.4 94H34.768L0.464 3.12H27.472L47.184 65.072L53.456 46.512L38.352 3.12ZM211.106 94H186.786V56.112C186.786 52.784 186.018 50.3947 184.482 48.944C183.031 47.408 181.197 46.64 178.978 46.64C177.954 46.64 176.674 47.024 175.138 47.792C173.687 48.56 172.279 49.6693 170.914 51.12C169.549 52.5707 168.482 54.2773 167.714 56.24V94H143.394V0.559998H167.714V36.656C170.103 32.9867 173.218 30.2133 177.058 28.336C180.983 26.3733 185.293 25.392 189.986 25.392C194.765 25.392 198.562 26.2027 201.378 27.824C204.194 29.36 206.285 31.3653 207.65 33.84C209.015 36.3147 209.911 38.96 210.338 41.776C210.85 44.592 211.106 47.2373 211.106 49.712V94ZM221.382 100.784C223.345 101.467 225.137 101.979 226.758 102.32C228.465 102.747 230.001 102.96 231.366 102.96C233.158 102.96 234.651 102.619 235.846 101.936C237.041 101.339 237.979 100.357 238.662 98.992C239.345 97.6267 239.771 95.9627 239.942 94L215.494 26.672H240.454L253.254 69.04L263.622 26.672H286.278L263.494 102.064C262.214 106.416 260.123 110.213 257.222 113.456C254.321 116.784 250.865 119.344 246.854 121.136C242.843 123.013 238.534 123.952 233.926 123.952C231.793 123.952 229.659 123.739 227.526 123.312C225.478 122.971 223.43 122.373 221.382 121.52V100.784ZM397.704 26.672H420.616L393.096 94H373.256L364.168 68.4L355.08 94H335.24L307.72 26.672H330.632L346.632 71.216L351.112 56.112L338.824 26.672H358.408L364.168 46.384L369.928 26.672H389.512L377.224 56.112L381.704 71.216L397.704 26.672ZM456.296 95.28C450.408 95.28 445.16 94.384 440.552 92.592C435.944 90.7147 432.061 88.1973 428.904 85.04C425.832 81.8827 423.485 78.256 421.864 74.16C420.243 70.064 419.432 65.7547 419.432 61.232C419.432 54.7467 420.84 48.816 423.656 43.44C426.472 37.9787 430.611 33.6267 436.072 30.384C441.533 27.056 448.275 25.392 456.296 25.392C464.317 25.392 471.059 27.0133 476.52 30.256C481.981 33.4987 486.12 37.7653 488.936 43.056C491.752 48.3467 493.16 54.1067 493.16 60.336C493.16 61.616 493.075 62.9387 492.904 64.304C492.819 65.584 492.691 66.736 492.52 67.76H445.288C445.459 70.1493 446.099 72.112 447.208 73.648C448.403 75.0987 449.853 76.1653 451.56 76.848C453.352 77.5307 455.187 77.872 457.064 77.872C459.709 77.872 462.184 77.2747 464.488 76.08C466.877 74.8853 468.456 73.2213 469.224 71.088L489.832 76.976C488.04 80.56 485.523 83.7173 482.28 86.448C479.123 89.1787 475.368 91.3547 471.016 92.976C466.664 94.512 461.757 95.28 456.296 95.28ZM444.776 53.168H467.048C466.792 50.9493 466.152 49.072 465.128 47.536C464.189 46 462.909 44.8053 461.288 43.952C459.752 43.0987 457.96 42.672 455.912 42.672C453.864 42.672 452.029 43.0987 450.408 43.952C448.872 44.8053 447.592 46 446.568 47.536C445.629 49.072 445.032 50.9493 444.776 53.168ZM556.902 95.28C551.014 95.28 545.211 94.3413 539.494 92.464C533.862 90.5013 529.083 87.6853 525.158 84.016L533.478 69.04C537.659 71.7707 541.67 73.904 545.51 75.44C549.435 76.976 552.977 77.744 556.134 77.744C557.926 77.744 559.249 77.5307 560.102 77.104C560.955 76.592 561.382 75.7813 561.382 74.672C561.382 73.904 561.083 73.264 560.486 72.752C559.889 72.24 558.907 71.728 557.542 71.216C556.262 70.704 554.598 70.1493 552.55 69.552C547.259 67.6747 542.822 65.9253 539.238 64.304C535.739 62.6827 533.094 60.72 531.302 58.416C529.595 56.0267 528.742 52.8693 528.742 48.944C528.742 44.336 529.894 40.2827 532.198 36.784C534.502 33.2 537.787 30.384 542.054 28.336C546.406 26.288 551.611 25.264 557.67 25.264C562.193 25.264 566.715 25.9893 571.238 27.44C575.846 28.8053 580.283 31.3227 584.55 34.992L575.334 49.84C571.067 47.1947 567.441 45.3173 564.454 44.208C561.553 43.0987 558.95 42.544 556.646 42.544C555.537 42.544 554.555 42.672 553.702 42.928C552.934 43.184 552.337 43.568 551.91 44.08C551.483 44.592 551.27 45.2747 551.27 46.128C551.27 46.9813 551.569 47.7067 552.166 48.304C552.763 48.816 553.702 49.328 554.982 49.84C556.262 50.2667 557.883 50.7787 559.846 51.376C565.649 53.0827 570.385 54.832 574.054 56.624C577.723 58.3307 580.411 60.4213 582.118 62.896C583.91 65.3707 584.806 68.6133 584.806 72.624C584.806 79.7067 582.289 85.2533 577.254 89.264C572.305 93.2747 565.521 95.28 556.902 95.28ZM640.501 90.288C638.282 91.2267 635.893 92.1227 633.333 92.976C630.858 93.744 628.298 94.3413 625.653 94.768C623.093 95.1947 620.576 95.408 618.101 95.408C614.432 95.408 611.061 94.8107 607.989 93.616C604.917 92.336 602.442 90.288 600.565 87.472C598.773 84.5707 597.877 80.688 597.877 75.824V44.976H589.557V26.672H597.877V5.55199H622.197V26.672H635.381V44.976H622.197V67.248C622.197 69.4667 622.666 71.0453 623.605 71.984C624.544 72.8373 625.824 73.264 627.445 73.264C628.64 73.264 630.005 73.0507 631.541 72.624C633.077 72.1973 634.613 71.6853 636.149 71.088L640.501 90.288ZM643.682 73.648C643.682 69.1253 644.919 65.1573 647.394 61.744C649.869 58.2453 653.282 55.5147 657.634 53.552C662.071 51.5893 667.106 50.608 672.738 50.608C675.383 50.608 677.858 50.8213 680.162 51.248C682.551 51.6747 684.599 52.3147 686.306 53.168V51.12C686.306 47.9627 685.367 45.616 683.49 44.08C681.698 42.544 678.754 41.776 674.658 41.776C670.903 41.776 667.362 42.416 664.034 43.696C660.791 44.8907 657.378 46.6827 653.794 49.072L646.754 33.968C651.277 31.0667 656.013 28.9333 660.962 27.568C665.997 26.1173 671.373 25.392 677.09 25.392C687.757 25.392 695.991 27.824 701.794 32.688C707.682 37.4667 710.626 44.592 710.626 54.064V67.12C710.626 69.424 710.967 71.0453 711.65 71.984C712.333 72.8373 713.527 73.3493 715.234 73.52V94C713.271 94.4267 711.394 94.7253 709.602 94.896C707.895 95.152 706.359 95.28 704.994 95.28C700.642 95.28 697.314 94.512 695.01 92.976C692.791 91.3547 691.341 89.008 690.658 85.936L690.146 83.504C687.159 87.344 683.703 90.288 679.778 92.336C675.853 94.2987 671.671 95.28 667.234 95.28C662.797 95.28 658.786 94.3413 655.202 92.464C651.618 90.5867 648.802 88.0267 646.754 84.784C644.706 81.456 643.682 77.744 643.682 73.648ZM683.106 75.312C684.045 74.6293 684.813 73.904 685.41 73.136C686.007 72.2827 686.306 71.4293 686.306 70.576V65.584C684.941 65.072 683.362 64.6453 681.57 64.304C679.863 63.9627 678.327 63.792 676.962 63.792C674.061 63.792 671.586 64.5173 669.538 65.968C667.575 67.4187 666.594 69.2533 666.594 71.472C666.594 72.6667 666.935 73.776 667.618 74.8C668.301 75.7387 669.239 76.5067 670.434 77.104C671.629 77.616 672.994 77.872 674.53 77.872C675.981 77.872 677.474 77.6587 679.01 77.232C680.631 76.72 681.997 76.08 683.106 75.312ZM791.731 94H767.411V56.112C767.411 52.784 766.643 50.3947 765.107 48.944C763.656 47.408 761.95 46.64 759.987 46.64C758.622 46.64 757.171 47.0667 755.635 47.92C754.099 48.688 752.691 49.7973 751.411 51.248C750.131 52.6987 749.107 54.3627 748.339 56.24V94H724.019V26.672H745.907V36.656C747.528 34.1813 749.576 32.1333 752.051 30.512C754.526 28.8053 757.384 27.5253 760.627 26.672C763.87 25.8187 767.411 25.392 771.251 25.392C775.859 25.392 779.528 26.2027 782.259 27.824C784.99 29.4453 787.038 31.536 788.403 34.096C789.768 36.656 790.664 39.344 791.091 42.16C791.518 44.8907 791.731 47.408 791.731 49.712V94ZM799.935 60.208C799.935 53.552 801.172 47.6213 803.647 42.416C806.207 37.1253 809.706 32.9867 814.143 30C818.58 26.928 823.658 25.392 829.375 25.392C833.727 25.392 837.738 26.416 841.407 28.464C845.076 30.4267 847.85 33.1573 849.727 36.656V0.559998H874.047V67.12C874.047 69.424 874.388 71.0453 875.071 71.984C875.754 72.8373 876.948 73.3493 878.655 73.52V94C874.474 94.8533 871.06 95.28 868.415 95.28C864.319 95.28 861.076 94.512 858.687 92.976C856.298 91.44 854.762 89.0933 854.079 85.936L853.567 83.504C851.263 87.6 848.148 90.5867 844.223 92.464C840.298 94.3413 836.116 95.28 831.679 95.28C827.071 95.28 822.804 94.4267 818.879 92.72C815.039 91.0133 811.668 88.624 808.767 85.552C805.951 82.3947 803.775 78.6827 802.239 74.416C800.703 70.064 799.935 65.328 799.935 60.208ZM849.855 67.888V55.856C849.087 53.8933 848.02 52.1867 846.655 50.736C845.375 49.2 843.924 48.0053 842.303 47.152C840.682 46.2987 839.018 45.872 837.311 45.872C835.519 45.872 833.855 46.256 832.319 47.024C830.868 47.792 829.588 48.8587 828.479 50.224C827.37 51.5893 826.516 53.168 825.919 54.96C825.322 56.752 825.023 58.672 825.023 60.72C825.023 62.8533 825.322 64.7733 825.919 66.48C826.602 68.1867 827.54 69.68 828.735 70.96C829.93 72.1547 831.338 73.0933 832.959 73.776C834.58 74.4587 836.372 74.8 838.335 74.8C839.53 74.8 840.639 74.672 841.663 74.416C842.687 74.0747 843.668 73.648 844.607 73.136C845.546 72.5387 846.442 71.8133 847.295 70.96C848.234 70.0213 849.087 68.9973 849.855 67.888ZM950.546 95.28C944.573 95.28 939.282 94.3413 934.674 92.464C930.066 90.5867 926.183 88.0267 923.026 84.784C919.954 81.456 917.607 77.7013 915.986 73.52C914.45 69.3387 913.682 64.944 913.682 60.336C913.682 55.728 914.45 51.3333 915.986 47.152C917.607 42.8853 919.954 39.1307 923.026 35.888C926.183 32.6453 930.066 30.0853 934.674 28.208C939.282 26.3307 944.573 25.392 950.546 25.392C956.605 25.392 961.895 26.3307 966.418 28.208C971.026 30.0853 974.866 32.6453 977.938 35.888C981.095 39.1307 983.442 42.8853 984.978 47.152C986.599 51.3333 987.41 55.728 987.41 60.336C987.41 64.944 986.599 69.3387 984.978 73.52C983.442 77.7013 981.095 81.456 977.938 84.784C974.866 88.0267 971.026 90.5867 966.418 92.464C961.895 94.3413 956.605 95.28 950.546 95.28ZM938.642 60.336C938.642 63.3227 939.154 65.9253 940.178 68.144C941.202 70.2773 942.61 71.9413 944.402 73.136C946.194 74.2453 948.242 74.8 950.546 74.8C952.85 74.8 954.898 74.2453 956.69 73.136C958.482 71.9413 959.89 70.2773 960.914 68.144C961.938 65.9253 962.45 63.3227 962.45 60.336C962.45 57.3493 961.938 54.7893 960.914 52.656C959.89 50.4373 958.482 48.7733 956.69 47.664C954.898 46.4693 952.85 45.872 950.546 45.872C948.242 45.872 946.194 46.4693 944.402 47.664C942.61 48.7733 941.202 50.4373 940.178 52.656C939.154 54.7893 938.642 57.3493 938.642 60.336ZM995.379 70.96V26.672H1019.7V65.456C1019.7 68.3573 1020.34 70.6613 1021.62 72.368C1022.98 73.9893 1024.82 74.8 1027.12 74.8C1028.4 74.8 1029.68 74.6293 1030.96 74.288C1032.24 73.9467 1033.52 73.264 1034.8 72.24C1036.17 71.216 1037.49 69.7653 1038.77 67.888V26.672H1063.09V67.12C1063.09 69.424 1063.43 71.0453 1064.12 71.984C1064.8 72.8373 1065.99 73.3493 1067.7 73.52V94C1065.57 94.4267 1063.65 94.7253 1061.94 94.896C1060.23 95.152 1058.74 95.28 1057.46 95.28C1053.36 95.28 1050.12 94.512 1047.73 92.976C1045.34 91.44 1043.81 89.0933 1043.12 85.936L1042.61 83.504C1039.45 87.6853 1035.66 90.7147 1031.22 92.592C1026.87 94.384 1021.92 95.28 1016.37 95.28C1009.63 95.28 1004.42 93.1893 1000.76 89.008C997.171 84.8267 995.379 78.8107 995.379 70.96ZM1124.38 90.288C1122.16 91.2267 1119.77 92.1227 1117.21 92.976C1114.73 93.744 1112.17 94.3413 1109.53 94.768C1106.97 95.1947 1104.45 95.408 1101.98 95.408C1098.31 95.408 1094.94 94.8107 1091.86 93.616C1088.79 92.336 1086.32 90.288 1084.44 87.472C1082.65 84.5707 1081.75 80.688 1081.75 75.824V44.976H1073.43V26.672H1081.75V5.55199H1106.07V26.672H1119.26V44.976H1106.07V67.248C1106.07 69.4667 1106.54 71.0453 1107.48 71.984C1108.42 72.8373 1109.7 73.264 1111.32 73.264C1112.51 73.264 1113.88 73.0507 1115.42 72.624C1116.95 72.1973 1118.49 71.6853 1120.02 71.088L1124.38 90.288Z" fill="#FBF9F9"/>
</svg>
